<svg width="80" height="80" viewBox="0 0 80 80" fill="none" xmlns="http://www.w3.org/2000/svg">
<rect width="80" height="80" rx="40" fill="#0060D3"/>
<path d="M24.25 39.7498C24.3813 39.8483 24.5308 39.92 24.6898 39.9607C24.8488 40.0015 25.0143 40.0105 25.1768 39.9873C25.3393 39.964 25.4956 39.9091 25.6369 39.8254C25.7781 39.7418 25.9015 39.6311 26 39.4998C26.7568 38.4907 27.7382 37.6717 28.8664 37.1076C29.9946 36.5435 31.2386 36.2498 32.5 36.2498C33.7614 36.2498 35.0054 36.5435 36.1336 37.1076C37.2618 37.6717 38.2432 38.4907 39 39.4998C39.1991 39.7648 39.4954 39.9398 39.8236 39.9864C40.1517 40.033 40.485 39.9473 40.75 39.7483C40.8445 39.678 40.9282 39.5943 40.9984 39.4998C41.7553 38.4907 42.7366 37.6717 43.8648 37.1076C44.993 36.5435 46.2371 36.2498 47.4984 36.2498C48.7598 36.2498 50.0038 36.5435 51.132 37.1076C52.2602 37.6717 53.2416 38.4907 53.9984 39.4998C54.1976 39.765 54.4939 39.9403 54.8222 39.987C55.1505 40.0338 55.484 39.9482 55.7492 39.749C56.0144 39.5499 56.1897 39.2536 56.2364 38.9253C56.2832 38.5969 56.1976 38.2635 55.9984 37.9983C54.892 36.5149 53.4165 35.3471 51.7188 34.6108C52.6495 33.761 53.3016 32.6497 53.5895 31.4226C53.8773 30.1956 53.7875 28.9102 53.3318 27.7352C52.8761 26.5601 52.0757 25.5503 51.0358 24.8382C49.9959 24.1262 48.765 23.7451 47.5047 23.7451C46.2444 23.7451 45.0135 24.1262 43.9736 24.8382C42.9336 25.5503 42.1333 26.5601 41.6776 27.7352C41.2219 28.9102 41.132 30.1956 41.4199 31.4226C41.7078 32.6497 42.3599 33.761 43.2906 34.6108C42.0648 35.1408 40.9511 35.8997 40.0094 36.8467C39.0676 35.8997 37.954 35.1408 36.7281 34.6108C37.6589 33.761 38.311 32.6497 38.5989 31.4226C38.8867 30.1956 38.7969 28.9102 38.3412 27.7352C37.8854 26.5601 37.0851 25.5503 36.0452 24.8382C35.0053 24.1262 33.7744 23.7451 32.5141 23.7451C31.2537 23.7451 30.0228 24.1262 28.9829 24.8382C27.943 25.5503 27.1427 26.5601 26.687 27.7352C26.2312 28.9102 26.1414 30.1956 26.4293 31.4226C26.7171 32.6497 27.3692 33.761 28.3 34.6108C26.5948 35.3447 25.112 36.5133 24 37.9998C23.9015 38.1311 23.8298 38.2806 23.7891 38.4396C23.7484 38.5986 23.7393 38.7641 23.7626 38.9266C23.7858 39.0891 23.8408 39.2454 23.9244 39.3867C24.008 39.5279 24.1187 39.6513 24.25 39.7498ZM47.5 26.2498C48.2417 26.2498 48.9667 26.4698 49.5834 26.8818C50.2001 27.2939 50.6807 27.8795 50.9645 28.5648C51.2484 29.25 51.3226 30.004 51.1779 30.7314C51.0333 31.4588 50.6761 32.127 50.1517 32.6515C49.6272 33.1759 48.959 33.5331 48.2316 33.6778C47.5042 33.8225 46.7502 33.7482 46.0649 33.4644C45.3797 33.1805 44.794 32.6999 44.382 32.0832C43.9699 31.4665 43.75 30.7415 43.75 29.9998C43.75 29.0053 44.1451 28.0514 44.8483 27.3482C45.5516 26.6449 46.5054 26.2498 47.5 26.2498ZM32.5 26.2498C33.2417 26.2498 33.9667 26.4698 34.5834 26.8818C35.2001 27.2939 35.6807 27.8795 35.9645 28.5648C36.2484 29.25 36.3226 30.004 36.1779 30.7314C36.0333 31.4588 35.6761 32.127 35.1517 32.6515C34.6272 33.1759 33.959 33.5331 33.2316 33.6778C32.5042 33.8225 31.7502 33.7482 31.0649 33.4644C30.3797 33.1805 29.794 32.6999 29.382 32.0832C28.9699 31.4665 28.75 30.7415 28.75 29.9998C28.75 29.0053 29.1451 28.0514 29.8483 27.3482C30.5516 26.6449 31.5054 26.2498 32.5 26.2498ZM51.7188 50.8608C52.6495 50.011 53.3016 48.8997 53.5895 47.6726C53.8773 46.4456 53.7875 45.1602 53.3318 43.9852C52.8761 42.8101 52.0757 41.8003 51.0358 41.0882C49.9959 40.3762 48.765 39.9951 47.5047 39.9951C46.2444 39.9951 45.0135 40.3762 43.9736 41.0882C42.9336 41.8003 42.1333 42.8101 41.6776 43.9852C41.2219 45.1602 41.132 46.4456 41.4199 47.6726C41.7078 48.8997 42.3599 50.011 43.2906 50.8608C42.0648 51.3908 40.9511 52.1497 40.0094 53.0967C39.0676 52.1497 37.954 51.3908 36.7281 50.8608C37.6589 50.011 38.311 48.8997 38.5989 47.6726C38.8867 46.4456 38.7969 45.1602 38.3412 43.9852C37.8854 42.8101 37.0851 41.8003 36.0452 41.0882C35.0053 40.3762 33.7744 39.9951 32.5141 39.9951C31.2537 39.9951 30.0228 40.3762 28.9829 41.0882C27.943 41.8003 27.1427 42.8101 26.687 43.9852C26.2312 45.1602 26.1414 46.4456 26.4293 47.6726C26.7171 48.8997 27.3692 50.011 28.3 50.8608C26.5948 51.5947 25.112 52.7633 24 54.2498C23.9015 54.3811 23.8298 54.5306 23.7891 54.6896C23.7484 54.8486 23.7393 55.0141 23.7626 55.1766C23.7858 55.3391 23.8408 55.4954 23.9244 55.6367C24.008 55.7779 24.1187 55.9013 24.25 55.9998C24.3813 56.0983 24.5308 56.17 24.6898 56.2107C24.8488 56.2515 25.0143 56.2605 25.1768 56.2373C25.3393 56.214 25.4956 56.159 25.6369 56.0754C25.7781 55.9918 25.9015 55.8811 26 55.7498C26.7568 54.7407 27.7382 53.9217 28.8664 53.3576C29.9946 52.7935 31.2386 52.4998 32.5 52.4998C33.7614 52.4998 35.0054 52.7935 36.1336 53.3576C37.2618 53.9217 38.2432 54.7407 39 55.7498C39.1991 56.0148 39.4954 56.1898 39.8236 56.2364C40.1517 56.283 40.485 56.1973 40.75 55.9983C40.8445 55.928 40.9282 55.8443 40.9984 55.7498C41.7553 54.7407 42.7366 53.9217 43.8648 53.3576C44.993 52.7935 46.2371 52.4998 47.4984 52.4998C48.7598 52.4998 50.0038 52.7935 51.132 53.3576C52.2602 53.9217 53.2416 54.7407 53.9984 55.7498C54.1976 56.015 54.4939 56.1903 54.8222 56.237C55.1505 56.2838 55.484 56.1982 55.7492 55.999C56.0144 55.7999 56.1897 55.5036 56.2364 55.1753C56.2832 54.8469 56.1976 54.5135 55.9984 54.2483C54.892 52.7649 53.4165 51.5971 51.7188 50.8608ZM32.5 42.4998C33.2417 42.4998 33.9667 42.7198 34.5834 43.1318C35.2001 43.5439 35.6807 44.1295 35.9645 44.8148C36.2484 45.5 36.3226 46.254 36.1779 46.9814C36.0333 47.7088 35.6761 48.377 35.1517 48.9015C34.6272 49.4259 33.959 49.7831 33.2316 49.9278C32.5042 50.0725 31.7502 49.9982 31.0649 49.7144C30.3797 49.4305 29.794 48.9499 29.382 48.3332C28.9699 47.7165 28.75 46.9915 28.75 46.2498C28.75 45.2553 29.1451 44.3014 29.8483 43.5982C30.5516 42.8949 31.5054 42.4998 32.5 42.4998ZM47.5 42.4998C48.2417 42.4998 48.9667 42.7198 49.5834 43.1318C50.2001 43.5439 50.6807 44.1295 50.9645 44.8148C51.2484 45.5 51.3226 46.254 51.1779 46.9814C51.0333 47.7088 50.6761 48.377 50.1517 48.9015C49.6272 49.4259 48.959 49.7831 48.2316 49.9278C47.5042 50.0725 46.7502 49.9982 46.0649 49.7144C45.3797 49.4305 44.794 48.9499 44.382 48.3332C43.9699 47.7165 43.75 46.9915 43.75 46.2498C43.75 45.2553 44.1451 44.3014 44.8483 43.5982C45.5516 42.8949 46.5054 42.4998 47.5 42.4998Z" fill="#E3EDFB"/>
</svg>
