<svg width="80" height="80" viewBox="0 0 80 80" fill="none" xmlns="http://www.w3.org/2000/svg">
<rect width="80" height="80" rx="40" fill="#0060D3"/>
<path d="M55 51.25H53.75V26.25C53.75 25.9185 53.6183 25.6005 53.3839 25.3661C53.1495 25.1317 52.8315 25 52.5 25H43.75C43.4185 25 43.1005 25.1317 42.8661 25.3661C42.6317 25.6005 42.5 25.9185 42.5 26.25V32.5H35C34.6685 32.5 34.3505 32.6317 34.1161 32.8661C33.8817 33.1005 33.75 33.4185 33.75 33.75V40H27.5C27.1685 40 26.8505 40.1317 26.6161 40.3661C26.3817 40.6005 26.25 40.9185 26.25 41.25V51.25H25C24.6685 51.25 24.3505 51.3817 24.1161 51.6161C23.8817 51.8505 23.75 52.1685 23.75 52.5C23.75 52.8315 23.8817 53.1495 24.1161 53.3839C24.3505 53.6183 24.6685 53.75 25 53.75H55C55.3315 53.75 55.6495 53.6183 55.8839 53.3839C56.1183 53.1495 56.25 52.8315 56.25 52.5C56.25 52.1685 56.1183 51.8505 55.8839 51.6161C55.6495 51.3817 55.3315 51.25 55 51.25ZM45 27.5H51.25V51.25H45V27.5ZM36.25 35H42.5V51.25H36.25V35ZM28.75 42.5H33.75V51.25H28.75V42.5Z" fill="#E3EDFB"/>
</svg>
