<svg width="563" height="600" viewBox="0 0 563 600" fill="none" xmlns="http://www.w3.org/2000/svg">
<g clip-path="url(#clip0_350_1533)">
<line y1="100.5" x2="563" y2="100.5" stroke="#A6ACB3" stroke-dasharray="7 7"/>
<line y1="200.5" x2="563" y2="200.5" stroke="#A6ACB3" stroke-dasharray="7 7"/>
<line y1="300.5" x2="563" y2="300.5" stroke="#A6ACB3" stroke-dasharray="7 7"/>
<line y1="400.5" x2="563" y2="400.5" stroke="#A6ACB3" stroke-dasharray="7 7"/>
<line y1="500.5" x2="563" y2="500.5" stroke="#A6ACB3" stroke-dasharray="7 7"/>
<path d="M109.051 12.0206C102.419 12.0206 97.5628 16.6516 97.5628 23.0362V23.0812C97.5628 29.2409 102.149 33.8045 108.331 33.8045C112.737 33.8045 116.065 31.4665 117.368 28.589H117.458C117.458 28.8363 117.458 29.0611 117.436 29.2859C117.256 36.0976 114.873 41.9651 108.826 41.9651C105.499 41.9651 103.183 40.3015 102.216 37.6263L102.126 37.379H98.0124L98.0799 37.6712C99.159 42.3922 103.273 45.5395 108.781 45.5395C116.717 45.5395 121.37 39.155 121.37 28.2293V28.1843C121.37 16.157 115.03 12.0206 109.051 12.0206ZM109.028 30.2526C104.757 30.2526 101.677 27.2176 101.677 22.9912V22.9463C101.677 18.8548 104.959 15.6175 109.096 15.6175C113.254 15.6175 116.492 18.9222 116.492 23.0812V23.1036C116.492 27.2401 113.277 30.2526 109.028 30.2526ZM137.219 45.5395C144.098 45.5395 148.999 41.6728 148.999 36.2325V36.1875C148.999 32.1859 146.189 28.8587 142.03 27.8921V27.8021C145.582 26.7006 147.83 24.0029 147.83 20.5858V20.5408C147.83 15.64 143.356 12.0206 137.219 12.0206C131.082 12.0206 126.608 15.64 126.608 20.5408V20.5858C126.608 24.0029 128.856 26.7006 132.408 27.8021V27.8921C128.249 28.8587 125.439 32.1859 125.439 36.1875V36.2325C125.439 41.6728 130.34 45.5395 137.219 45.5395ZM137.219 26.2959C133.307 26.2959 130.632 24.0703 130.632 20.923V20.878C130.632 17.7307 133.307 15.5051 137.219 15.5051C141.131 15.5051 143.806 17.7307 143.806 20.878V20.923C143.806 24.0703 141.131 26.2959 137.219 26.2959ZM137.219 42.01C132.745 42.01 129.553 39.4922 129.553 35.9852V35.9402C129.553 32.3882 132.723 29.8479 137.219 29.8479C141.715 29.8479 144.885 32.3882 144.885 35.9402V35.9852C144.885 39.4922 141.693 42.01 137.219 42.01ZM159.632 28.5665C163.724 28.5665 166.197 25.4416 166.197 20.4284V20.4059C166.197 15.4152 163.724 12.2903 159.632 12.2903C155.541 12.2903 153.068 15.4152 153.068 20.4059V20.4284C153.068 25.4416 155.541 28.5665 159.632 28.5665ZM161.094 45L181.866 12.5601H178.224L157.407 45H161.094ZM159.632 25.8688C157.452 25.8688 156.193 23.8455 156.193 20.4284V20.4059C156.193 16.9888 157.452 14.988 159.632 14.988C161.813 14.988 163.072 16.9888 163.072 20.4059V20.4284C163.072 23.8455 161.813 25.8688 159.632 25.8688ZM179.618 45.2698C183.709 45.2698 186.182 42.1449 186.182 37.1317V37.1092C186.182 32.1185 183.709 28.9936 179.618 28.9936C175.526 28.9936 173.054 32.1185 173.054 37.1092V37.1317C173.054 42.1449 175.526 45.2698 179.618 45.2698ZM179.618 42.5721C177.437 42.5721 176.178 40.5488 176.178 37.1317V37.1092C176.178 33.6921 177.437 31.6913 179.618 31.6913C181.799 31.6913 183.058 33.6921 183.058 37.1092V37.1317C183.058 40.5488 181.799 42.5721 179.618 42.5721Z" fill="#00447C"/>
<mask id="path-7-inside-1_350_1533" fill="white">
<path d="M0 265.835H93.8333V600H0V265.835Z"/>
</mask>
<path d="M0 265.835H93.8333V600H0V265.835Z" fill="#97BEED" fill-opacity="0.7"/>
<path d="M0 271.835H93.8333V259.835H0V271.835Z" fill="#0060D3" mask="url(#path-7-inside-1_350_1533)"/>
<mask id="path-9-inside-2_350_1533" fill="white">
<path d="M93.8333 60H187.667V600H93.8333V60Z"/>
</mask>
<path d="M93.8333 60H187.667V600H93.8333V60Z" fill="#97BEED" fill-opacity="0.6"/>
<path d="M93.8333 66H187.667V54H93.8333V66Z" fill="#0060D3" mask="url(#path-9-inside-2_350_1533)"/>
<mask id="path-11-inside-3_350_1533" fill="white">
<path d="M187.667 197.224H281.5V600H187.667V197.224Z"/>
</mask>
<path d="M187.667 197.224H281.5V600H187.667V197.224Z" fill="#97BEED" fill-opacity="0.5"/>
<path d="M187.667 203.224H281.5V191.224H187.667V203.224Z" fill="#0060D3" mask="url(#path-11-inside-3_350_1533)"/>
<mask id="path-13-inside-4_350_1533" fill="white">
<path d="M281.5 113.365H375.333V600.001H281.5V113.365Z"/>
</mask>
<path d="M281.5 113.365H375.333V600.001H281.5V113.365Z" fill="#97BEED" fill-opacity="0.4"/>
<path d="M281.5 119.365H375.333V107.365H281.5V119.365Z" fill="#0060D3" mask="url(#path-13-inside-4_350_1533)"/>
<mask id="path-15-inside-5_350_1533" fill="white">
<path d="M375.333 317.93H469.167V600H375.333V317.93Z"/>
</mask>
<path d="M375.333 317.93H469.167V600H375.333V317.93Z" fill="#97BEED" fill-opacity="0.4"/>
<path d="M375.333 323.93H469.167V311.93H375.333V323.93Z" fill="#0060D3" mask="url(#path-15-inside-5_350_1533)"/>
<mask id="path-17-inside-6_350_1533" fill="white">
<path d="M469.167 152.753H563V600H469.167V152.753Z"/>
</mask>
<path d="M469.167 152.753H563V600H469.167V152.753Z" fill="#97BEED" fill-opacity="0.2"/>
<path d="M469.167 158.753H563V146.753H469.167V158.753Z" fill="#0060D3" mask="url(#path-17-inside-6_350_1533)"/>
</g>
<defs>
<clipPath id="clip0_350_1533">
<rect width="563" height="600" fill="white"/>
</clipPath>
</defs>
</svg>
