<svg width="195" height="50" viewBox="0 0 195 50" fill="none" xmlns="http://www.w3.org/2000/svg">
<path d="M0.0820313 36.4836C0.739024 35.3296 1.39761 34.2074 2.0526 33.083C2.83064 31.7474 3.60893 30.4119 4.38088 29.0728C5.05974 27.8952 5.72635 26.7105 6.405 25.5327C7.17671 24.1935 7.95881 22.8603 8.73073 21.5212C9.40957 20.3435 10.0773 19.1594 10.7559 17.9817C11.5276 16.6424 12.3087 15.3086 13.0806 13.9695C13.7594 12.7918 14.4282 11.6084 15.1069 10.4306C15.8785 9.09136 16.6586 7.75699 17.4304 6.41789C18.1092 5.24017 18.7791 4.05726 19.4583 2.87975C19.7907 2.30345 20.1354 1.7342 20.5042 1.18555C20.5609 1.26514 20.5877 1.32095 20.5926 1.39642C20.5641 1.45489 20.5435 1.4978 20.5534 1.53191C21.0424 3.22621 21.5362 4.91916 22.0248 6.61359C22.4081 7.94273 22.777 9.27606 23.1692 10.6025C23.3332 11.1573 23.5409 11.6991 23.7287 12.2468C23.6086 12.5379 23.5201 12.8473 23.3634 13.1171C22.4602 14.6709 21.5411 16.2154 20.627 17.7628C19.7606 19.2294 18.8895 20.6933 18.0282 22.1629C17.2272 23.5295 16.439 24.9036 15.6401 26.2715C14.7876 27.7312 13.9278 29.1866 13.0736 30.6454C12.3473 31.8856 11.6236 33.1274 10.9007 34.3696C10.5856 34.911 10.2754 35.4551 9.98915 36.0201C10.0152 36.0422 10.0218 36.0444 10.0019 36.0202C9.94135 36.0371 9.90075 36.0782 9.83569 36.1337C9.72153 36.2672 9.61904 36.3786 9.54406 36.5062C8.59131 38.1279 7.64021 39.7506 6.69359 41.3758C6.15286 42.3042 5.62106 43.2379 5.06405 44.1843C5.00177 44.2952 4.96068 44.3908 4.91959 44.4865C4.61558 44.0098 4.30422 43.5377 4.00885 43.0558C2.798 41.0801 1.59199 39.1014 0.384385 37.1238C0.301436 36.9879 0.219996 36.8512 0.109943 36.707C0.0820311 36.6375 0.0820311 36.5759 0.0820313 36.4836Z" fill="#0060D3"/>
<path d="M96.7595 0.0820313C97.232 0.175273 97.6698 0.254195 98.0996 0.364332C99.6347 0.757739 101.026 1.45938 102.32 2.36369C102.637 2.58494 102.958 2.80425 103.247 3.05804C103.452 3.23759 103.498 3.4812 103.299 3.71875C103.024 4.04866 102.757 4.38667 102.471 4.7071C102.101 5.12198 101.713 5.52171 101.336 5.93034C101.072 6.21594 100.836 6.19011 100.548 5.93374C99.3536 4.87311 97.9663 4.23716 96.3747 4.01404C95.201 3.84951 94.0752 3.951 92.9995 4.44138C92.2028 4.80464 91.7597 5.46703 91.7216 6.3286C91.6923 6.99299 92.0427 7.54972 92.4789 8.03613C93.3339 8.98951 94.4725 9.50266 95.6061 10.013C97.6237 10.9213 99.7277 11.6498 101.544 12.9667C102.922 13.9658 103.889 15.2476 104.174 16.9391C104.525 19.0233 104.016 20.8872 102.453 22.3719C101.399 23.3735 100.104 23.9568 98.7018 24.2997C97.6098 24.5667 96.4965 24.7002 95.3754 24.6237C93.2231 24.4767 91.1526 24.0093 89.3609 22.7343C88.6832 22.2521 88.0853 21.654 87.4728 21.0854C87.2245 20.8548 87.2236 20.5621 87.5089 20.3355C88.2949 19.7115 89.085 19.0925 89.8808 18.4811C90.1123 18.3032 90.3593 18.3737 90.5286 18.5743C91.5251 19.7554 92.8602 20.3419 94.3231 20.5821C95.7624 20.8184 97.2397 20.8511 98.619 20.2597C99.5808 19.8474 100.429 19.1959 100.33 17.818C100.272 17.003 99.7771 16.4615 99.1762 16.0161C97.9145 15.081 96.4381 14.5605 95.0057 13.9697C93.2724 13.2548 91.5196 12.5684 90.0424 11.3916C88.8902 10.4736 88.0133 9.34643 87.8394 7.78335C87.6266 5.87133 88.073 4.13789 89.2262 2.62815C90.1319 1.44256 91.3996 0.745833 92.8545 0.413792C93.3345 0.30425 93.8234 0.233818 94.3216 0.113767C95.1303 0.0820308 95.9256 0.0820308 96.7595 0.0820313Z" fill="white"/>
<path d="M20.6147 1.37721C20.5878 1.3214 20.5609 1.26559 20.5334 1.18624C23.1862 1.15833 25.8395 1.1489 28.4928 1.15343C29.0891 1.15445 29.6864 1.19209 30.281 1.24119C30.4099 1.25184 30.5799 1.3543 30.6448 1.46499C31.7936 3.42746 32.933 5.39554 34.0665 7.367C35.1665 9.28036 36.2529 11.2016 37.3537 13.1145C38.5479 15.1895 39.7555 17.2567 40.9503 19.3314C41.9382 21.047 42.9113 22.771 43.8993 24.4865C44.8806 26.1902 45.8776 27.8848 46.8577 29.5892C47.7647 31.1662 48.657 32.7516 49.5585 34.3318C49.9694 35.0521 50.3875 35.7684 50.801 36.4872C50.9174 36.6894 50.906 36.8466 50.7631 37.0715C49.2077 39.5199 47.6752 41.9829 46.1348 44.4409C46.1007 44.4953 46.0471 44.5374 45.9575 44.6337C39.152 32.8849 32.3653 21.1685 25.5545 9.40992C25.4979 9.26714 25.4845 9.15463 25.4302 9.06767C23.8275 6.50262 22.2208 3.94012 20.6147 1.37721Z" fill="#00B7F7"/>
<path d="M149.937 1.86591C150.949 2.9327 151.943 3.97581 152.93 5.02536C153.646 5.78608 154.352 6.5564 155.064 7.32054C156.211 8.55177 157.361 9.7811 158.508 11.0119C159.249 11.8058 159.989 12.5997 160.727 13.3958C161.16 13.863 161.589 14.3344 162.019 14.804C162.067 14.8035 162.114 14.8031 162.162 14.8026C162.213 14.6065 162.308 14.4105 162.309 14.2143C162.317 10.041 162.315 5.86775 162.315 1.6945C162.315 1.04646 162.378 0.984972 163.035 0.984925C163.938 0.984861 164.841 0.998156 165.744 0.978806C166.14 0.970307 166.262 1.12637 166.262 1.50955C166.254 8.72038 166.254 15.9312 166.261 23.1421C166.261 23.508 166.124 23.6021 165.766 23.6615C164.952 23.7965 164.508 23.3011 164.05 22.7923C163.589 22.2802 163.141 21.7564 162.67 21.2529C161.714 20.2299 160.744 19.2208 159.786 18.1993C158.692 17.0312 157.605 15.8557 156.514 14.6836C155.775 13.8889 155.03 13.0988 154.296 12.299C153.491 11.4216 152.696 10.5353 151.895 9.6535C151.861 9.61584 151.82 9.58422 151.724 9.49659C151.724 9.70151 151.724 9.84411 151.724 9.98672C151.724 14.3105 151.723 18.6343 151.725 22.958C151.726 23.6784 151.559 23.6617 151.036 23.6506C150.106 23.6308 149.174 23.6208 148.245 23.6565C147.857 23.6715 147.751 23.4863 147.704 23.1805C147.69 23.0868 147.701 22.9893 147.701 22.8935C147.701 15.8742 147.701 8.85493 147.701 1.83565C147.701 1.013 148.067 0.784248 148.926 1.00957C149.406 1.13548 149.623 1.52418 149.937 1.86591Z" fill="white"/>
<path d="M171.1 2.87399C171.1 2.40876 171.127 1.98243 171.093 1.56099C171.06 1.15404 171.175 0.982222 171.695 0.984172C172.913 0.988736 174.131 0.98563 175.349 0.98563C176.266 0.98563 177.183 0.969877 178.099 0.988846C180.129 1.03086 182.069 1.4492 183.856 2.4479C186.628 3.99756 188.288 6.3824 189.084 9.42134C189.421 10.7068 189.49 12.0173 189.395 13.3229C189.229 15.6042 188.444 17.6822 187.029 19.4879C185.468 21.478 183.372 22.6665 180.961 23.3001C179.977 23.5588 178.959 23.6724 177.925 23.6557C175.846 23.6222 173.765 23.6459 171.685 23.6456C171.125 23.6456 171.1 23.6214 171.1 23.0709C171.1 16.3523 171.1 9.63366 171.1 2.87399ZM185.063 14.1762C185.143 13.7312 185.275 13.2884 185.294 12.8407C185.351 11.5291 185.149 10.2602 184.62 9.0421C183.752 7.04668 182.272 5.7434 180.227 5.06136C179.031 4.66245 177.79 4.6567 176.548 4.67875C176.048 4.68761 175.549 4.68021 175.041 4.68021C175.041 6.95456 175.041 9.16958 175.041 11.3846C175.041 13.9147 175.04 16.4447 175.042 18.9748C175.043 19.5987 175.397 19.9505 176.009 19.951C176.665 19.9516 177.322 19.9511 177.978 19.9511C179.132 19.9511 180.24 19.6921 181.256 19.1744C183.287 18.1393 184.538 16.4663 185.063 14.1762Z" fill="white"/>
<path d="M67.9806 13.1339C68.6422 11.6544 69.2962 10.2048 69.9579 8.75885C70.4713 7.63708 70.995 6.52001 71.513 5.40036C72.17 3.9802 72.8268 2.55992 73.4818 1.13878C73.6072 0.866633 73.7752 0.659658 74.1072 0.656286C74.4395 0.652911 74.5536 0.889841 74.6678 1.14145C75.6488 3.30214 76.6285 5.46347 77.6181 7.62022C78.1879 8.86194 78.7838 10.0917 79.3531 11.3336C80.3585 13.5269 81.3496 15.7267 82.3522 17.9212C83.1459 19.6584 83.9498 21.3909 84.7445 23.1276C84.9126 23.495 84.8228 23.6429 84.4427 23.6442C83.3757 23.6476 82.3087 23.6377 81.2418 23.65C80.9129 23.6537 80.749 23.4587 80.6291 23.2136C80.3201 22.5823 80.0167 21.9476 79.7348 21.304C79.5007 20.7696 79.0581 20.5379 78.5328 20.5346C75.5508 20.5159 72.5687 20.5295 69.5866 20.5222C68.9822 20.5207 68.4878 21.0421 68.3253 21.3898C68.0278 22.0261 67.7635 22.6792 67.4386 23.3008C67.3542 23.4621 67.0991 23.6252 66.9181 23.6302C65.8246 23.6606 64.7298 23.642 63.6355 23.6474C63.2969 23.649 63.2305 23.4978 63.3593 23.2146C63.8148 22.2129 64.2717 21.2118 64.7279 20.2103C65.7115 18.0508 66.6941 15.8909 67.6799 13.7324C67.7684 13.5387 67.8771 13.3542 67.9806 13.1339ZM74.4314 9.69388C74.0888 9.23153 73.9921 9.24159 73.7271 9.7817C73.558 10.1266 73.3994 10.4767 73.2365 10.8245C72.4433 12.5177 71.6515 14.2115 70.8565 15.9038C70.5668 16.5205 70.7586 16.8288 71.4455 16.8304C72.4433 16.8326 73.4411 16.8309 74.4389 16.8309C75.2454 16.8309 76.0519 16.8389 76.8583 16.8279C77.3447 16.8213 77.5342 16.5176 77.3368 16.0802C76.939 15.1987 76.5324 14.3211 76.1327 13.4404C75.5746 12.2106 75.0196 10.9795 74.4314 9.69388Z" fill="white"/>
<path d="M116.295 20.0964C116.862 20.1669 117.396 20.267 117.929 20.2652C118.476 20.2634 119.031 20.2049 119.567 20.0943C120.456 19.9109 121.302 19.6064 122.015 19.0034C122.307 18.7567 122.612 18.8525 122.85 19.1865C123.352 19.8921 123.86 20.5943 124.373 21.2919C124.645 21.6607 124.628 21.9591 124.278 22.2315C123.102 23.1453 121.787 23.7845 120.308 23.9571C119.126 24.0949 117.921 24.1927 116.738 24.1147C114.437 23.9629 112.301 23.2274 110.489 21.7621C108.386 20.0624 107.137 17.8319 106.555 15.1961C106.284 13.97 106.161 12.7351 106.253 11.4976C106.441 8.98189 107.172 6.64504 108.78 4.6424C109.779 3.39925 110.965 2.3756 112.405 1.68625C113.522 1.15183 114.693 0.758505 115.942 0.656682C116.627 0.600843 117.312 0.503074 117.997 0.501965C119.401 0.499692 120.748 0.821788 122.032 1.38191C122.737 1.68981 123.429 2.03277 124.115 2.38247C124.649 2.6548 124.693 2.86588 124.361 3.34861C123.931 3.97341 123.497 4.59537 123.066 5.21908C123.036 5.26233 123.018 5.31426 122.985 5.35507C122.479 5.99079 122.527 6.06119 121.797 5.59251C120.896 5.01468 119.921 4.64248 118.839 4.49951C117.354 4.30345 115.946 4.53206 114.614 5.14524C112.598 6.07357 111.365 7.70877 110.764 9.80947C110.183 11.8417 110.262 13.8574 111.106 15.8227C111.809 17.4626 112.947 18.7016 114.541 19.4912C115.08 19.7583 115.687 19.8885 116.295 20.0964Z" fill="white"/>
<path d="M4.95215 44.492C4.9607 44.3914 5.00179 44.2958 5.093 44.1829C5.36001 43.9466 5.58071 43.7313 5.79313 43.5081C6.81637 42.433 7.83466 41.3531 8.85985 40.2799C10.149 38.9304 11.4437 37.5862 12.7348 36.2385C13.2907 35.6583 13.8452 35.0768 14.3956 34.4914C14.457 34.4261 14.4872 34.3313 14.5319 34.2502C15.6415 33.7803 16.7495 33.3069 17.861 32.8416C19.3642 32.2124 20.8698 31.5891 22.3746 30.964C23.3533 30.5574 24.3279 30.1405 25.317 29.7611C25.4357 29.7155 25.6823 29.8322 25.7869 29.9482C26.5361 30.7793 27.2657 31.6282 27.998 32.4744C29.0295 33.6664 30.0544 34.8641 31.0918 36.051C31.2322 36.2116 31.4281 36.3238 31.6777 36.5213C30.691 36.8269 29.854 37.0943 29.012 37.3448C27.7805 37.7112 26.544 38.0607 25.3121 38.426C22.5567 39.2432 19.8027 40.0652 17.0484 40.8863C14.2052 41.7338 11.362 42.5814 8.51949 43.4311C7.34037 43.7835 6.1629 44.1415 4.95215 44.492Z" fill="#00447C"/>
<path d="M139.491 14.2035C136.101 14.2035 132.751 14.2019 129.402 14.2049C128.777 14.2055 128.712 14.0759 128.729 13.5367C128.755 12.6899 128.744 11.8416 128.732 10.9942C128.727 10.6522 128.846 10.504 129.205 10.5046C133.784 10.5111 138.364 10.5116 142.944 10.5039C143.322 10.5033 143.444 10.6535 143.437 11.0159C143.421 11.8905 143.434 12.7656 143.431 13.6405C143.43 14.0962 143.32 14.2021 142.854 14.2029C141.747 14.2047 140.639 14.2035 139.491 14.2035Z" fill="white"/>
<path d="M139.984 0.985437C140.968 0.985438 141.911 0.984014 142.855 0.986044C143.321 0.987048 143.43 1.09259 143.431 1.5488C143.434 2.41005 143.435 3.27132 143.431 4.13256C143.429 4.60046 143.347 4.67977 142.893 4.6798C138.354 4.68016 133.815 4.68018 129.276 4.67979C128.777 4.67975 128.736 4.63908 128.736 4.14366C128.735 3.25506 128.747 2.36626 128.73 1.47796C128.724 1.10307 128.873 0.979628 129.238 0.980473C132.806 0.988719 136.375 0.985438 139.984 0.985437Z" fill="white"/>
<path d="M135.796 19.9506C138.136 19.9506 140.435 19.9501 142.734 19.9509C143.294 19.951 143.432 20.0872 143.432 20.6334C143.432 21.468 143.421 22.3029 143.437 23.1373C143.444 23.4996 143.322 23.6508 142.944 23.6501C138.374 23.6424 133.803 23.6425 129.233 23.6501C128.862 23.6507 128.723 23.517 128.73 23.1466C128.747 22.2985 128.735 21.4499 128.736 20.6016C128.736 20.0405 128.822 19.9519 129.393 19.9514C131.514 19.9493 133.635 19.9506 135.796 19.9506Z" fill="white"/>
<path d="M88.3415 43.1859C88.3415 44.0182 88.3415 44.8094 88.3415 45.6487C88.0266 45.6487 87.729 45.668 87.4362 45.6389C87.3236 45.6277 87.1882 45.5296 87.1204 45.4315C85.8211 43.5502 84.5337 41.6607 83.2364 39.778C82.5434 38.7723 81.8364 37.7762 81.1369 36.7774C81.1369 39.6974 81.1369 42.6477 81.1369 45.6234C80.7922 45.6234 80.4858 45.6234 80.155 45.6234C80.155 42.0932 80.155 38.5588 80.155 34.976C80.4459 34.976 80.7435 34.9567 81.0363 34.9858C81.149 34.997 81.2844 35.0949 81.3524 35.1929C82.7316 37.1808 84.1013 39.1754 85.4758 41.1666C86.0939 42.0622 86.7183 42.9535 87.336 43.8412C87.336 40.9269 87.336 37.9767 87.336 35.0012C87.6807 35.0012 87.9871 35.0012 88.3415 35.0012C88.3415 37.713 88.3415 40.4289 88.3415 43.1859Z" fill="white"/>
<path d="M187.448 36.6166C186.803 37.1669 186.811 37.1594 186.218 36.5923C185.71 36.1059 185.088 35.8809 184.392 35.7877C183.693 35.6942 183.055 35.8088 182.432 36.1221C181.53 36.5763 181.086 37.7015 181.791 38.6136C182.181 39.1173 182.805 39.2635 183.404 39.4107C184.381 39.6508 185.37 39.8565 186.327 40.1607C187.329 40.4793 187.959 41.2628 188.034 42.4173C188.158 44.3174 186.846 45.4518 185.316 45.7209C183.649 46.0139 182.041 45.8584 180.705 44.6821C180.325 44.3467 180.064 43.8743 179.717 43.4228C180.084 43.1728 180.389 42.9658 180.729 42.7342C181.087 43.5711 181.636 44.2096 182.453 44.5494C183.779 45.1005 185.089 45.0818 186.277 44.205C186.802 43.8177 186.995 43.1881 186.93 42.5557C186.849 41.767 186.333 41.2691 185.587 41.0582C184.708 40.8096 183.806 40.6447 182.931 40.3832C182.368 40.2147 181.816 39.9784 181.298 39.6989C180.64 39.3432 180.408 38.7085 180.377 37.9877C180.348 37.3205 180.408 36.69 180.825 36.1157C181.32 35.434 182.018 35.0764 182.786 34.9103C184.224 34.5992 185.616 34.7521 186.854 35.636C187.095 35.8079 187.311 36.0235 187.502 36.2497C187.558 36.3164 187.489 36.4887 187.448 36.6166Z" fill="white"/>
<path d="M64.2015 43.5056C64.9433 41.5181 65.6836 39.5637 66.4223 37.6086C66.7263 36.8041 67.0193 35.9954 67.3382 35.1969C67.3782 35.0968 67.5429 34.9915 67.6559 34.9843C68.544 34.9275 68.5266 34.9414 68.8472 35.7971C69.6593 37.9649 70.4918 40.125 71.3105 42.2904C71.7305 43.4015 72.1385 44.5171 72.5548 45.6383C72.1483 45.6383 71.7665 45.6383 71.3792 45.6383C71.0233 44.6772 70.6686 43.7239 70.3179 42.7691C70.2379 42.5513 70.1325 42.4342 69.8598 42.4382C68.5741 42.457 67.2879 42.4533 66.002 42.4407C65.7539 42.4383 65.6679 42.5239 65.5893 42.7547C65.2822 43.6564 64.9463 44.5483 64.6078 45.4388C64.5745 45.5264 64.4541 45.6324 64.3673 45.6389C64.0464 45.6627 63.7227 45.6484 63.3572 45.6484C63.6516 44.9107 63.9255 44.2245 64.2015 43.5056ZM67.2414 38.3799C66.8392 39.4273 66.4371 40.4748 66.0349 41.5224C67.3109 41.5224 68.5682 41.5224 69.8335 41.5224C69.1948 39.8325 68.5641 38.1637 67.9398 36.5116C67.7104 37.1075 67.4781 37.7109 67.2414 38.3799Z" fill="white"/>
<path d="M104.021 43.2729C104.316 44.072 104.609 44.8381 104.912 45.6297C104.511 45.6297 104.138 45.6297 103.731 45.6297C103.339 44.5884 102.939 43.5275 102.531 42.4464C101.088 42.4464 99.6539 42.4421 98.2196 42.4565C98.1294 42.4574 97.9954 42.587 97.9583 42.6855C97.6271 43.5641 97.3005 44.4451 97.0026 45.3354C96.9242 45.5696 96.8394 45.6745 96.5852 45.6533C96.3141 45.6307 96.0397 45.6482 95.7139 45.6482C96.0259 44.8453 96.3289 44.0769 96.6233 43.3053C97.2034 41.785 97.7811 40.2638 98.3551 38.7412C98.8031 37.5531 99.2399 36.3607 99.6967 35.1761C99.7317 35.0854 99.8831 34.9907 99.9867 34.9829C100.882 34.9154 100.865 34.9277 101.186 35.7824C101.998 37.9502 102.827 40.1116 103.65 42.2755C103.772 42.5972 103.896 42.9186 104.021 43.2729ZM99.5492 41.5431C100.424 41.5431 101.298 41.5431 102.189 41.5431C101.548 39.8463 100.913 38.1651 100.288 36.5093C99.6605 38.1659 99.0238 39.8471 98.3815 41.5431C98.7568 41.5431 99.1122 41.5431 99.5492 41.5431Z" fill="white"/>
<path d="M172.11 37.8722C171.899 38.1326 171.824 37.939 171.768 37.7966C171.509 37.1419 171.096 36.6104 170.505 36.231C169.373 35.5038 168.018 35.5634 166.962 36.3628C165.939 37.1372 165.602 38.2397 165.426 39.446C165.279 40.4536 165.389 41.427 165.686 42.3801C166.042 43.5173 166.724 44.3675 167.908 44.753C169.318 45.2122 171.01 44.5374 171.631 43.192C171.72 42.9997 171.825 42.815 171.943 42.5867C172.224 42.7395 172.495 42.8679 172.741 43.0336C172.8 43.0735 172.821 43.2578 172.783 43.3408C172.153 44.7201 170.911 45.7648 169.242 45.8187C168.174 45.8533 167.156 45.7575 166.25 45.1151C165.258 44.4112 164.672 43.4256 164.472 42.2671C164.308 41.3143 164.229 40.3185 164.31 39.3583C164.457 37.6036 165.071 36.0316 166.798 35.2192C168.913 34.2245 171.849 34.822 172.83 37.4113C172.602 37.5562 172.369 37.7048 172.11 37.8722Z" fill="white"/>
<path d="M128.079 44.4985C128.079 43.7463 128.028 43.0302 128.093 42.325C128.16 41.6039 127.894 41.0336 127.531 40.4552C126.399 38.6475 125.287 36.8276 124.144 34.9753C124.564 34.9753 124.943 34.964 125.32 34.9834C125.412 34.9881 125.532 35.0735 125.583 35.1563C126.594 36.8087 127.597 38.4662 128.62 40.1516C129.117 39.3735 129.61 38.6096 130.095 37.8407C130.654 36.9535 131.203 36.0595 131.768 35.1759C131.827 35.0833 131.962 34.9915 132.067 34.9843C132.417 34.9604 132.77 34.9753 133.178 34.9753C132.712 35.7052 132.273 36.3963 131.831 37.0859C130.951 38.4615 130.066 39.8343 129.192 41.2144C129.113 41.3395 129.071 41.5094 129.07 41.6589C129.06 42.9707 129.064 44.2826 129.064 45.6214C128.743 45.6214 128.436 45.6214 128.079 45.6214C128.079 45.2671 128.079 44.9032 128.079 44.4985Z" fill="white"/>
<path d="M147.209 35.229C147.209 35.4569 147.209 35.6458 147.209 35.8698C146.057 35.8698 144.93 35.8698 143.77 35.8698C143.77 39.1374 143.77 42.3699 143.77 45.6253C143.431 45.6253 143.125 45.6253 142.785 45.6253C142.785 42.3897 142.785 39.1571 142.785 35.8891C141.626 35.8891 140.499 35.8891 139.349 35.8891C139.349 35.548 139.349 35.2417 139.349 34.9059C139.444 34.9015 139.535 34.8935 139.627 34.8935C142.033 34.8928 144.438 34.8938 146.844 34.8915C147.056 34.8913 147.277 34.8581 147.209 35.229Z" fill="white"/>
<path d="M112.479 39.4093C112.479 37.9209 112.479 36.4734 112.479 35.001C112.804 35.001 113.111 35.001 113.451 35.001C113.451 38.2305 113.451 41.4635 113.451 44.7313C115.432 44.7313 117.379 44.7313 119.351 44.7313C119.351 45.0442 119.351 45.3232 119.351 45.6259C117.078 45.6259 114.803 45.6259 112.479 45.6259C112.479 43.5681 112.479 41.5093 112.479 39.4093Z" fill="white"/>
<path d="M14.5011 34.2441C14.4873 34.3309 14.4571 34.4257 14.3957 34.491C13.8453 35.0764 13.2907 35.6579 12.7349 36.2381C11.4438 37.5858 10.149 38.93 8.85991 40.2795C7.83472 41.3527 6.81643 42.4326 5.79319 43.5077C5.58077 43.7308 5.36008 43.9462 5.11426 44.1672C5.62114 43.2381 6.15294 42.3045 6.69368 41.3761C7.64029 39.7508 8.59139 38.1281 9.54414 36.5065C9.61912 36.3788 9.72161 36.2674 9.8614 36.1361C9.9483 36.0973 9.98511 36.0709 10.0219 36.0446C10.0219 36.0446 10.0153 36.0424 10.0139 36.0456C11.4983 35.4453 12.9843 34.8419 14.5011 34.2441Z" fill="#002E64"/>
<path d="M20.5927 1.39648C22.2209 3.93973 23.8276 6.50224 25.4303 9.06728C25.4846 9.15424 25.498 9.26675 25.5273 9.39763C24.946 10.3627 24.368 11.2975 23.7594 12.2396C23.541 11.6992 23.3333 11.1573 23.1693 10.6026C22.7772 9.27612 22.4082 7.94279 22.025 6.61365C21.5364 4.91922 21.0426 3.22628 20.5535 1.53197C20.5437 1.49786 20.5643 1.45495 20.5927 1.39648Z" fill="#002E64"/>
<path d="M155.994 38.342C155.994 40.7877 155.994 43.1923 155.994 45.623C155.67 45.623 155.364 45.623 155.033 45.623C155.033 42.0954 155.033 38.5618 155.033 35.002C155.331 35.002 155.638 35.002 155.994 35.002C155.994 36.0972 155.994 37.1991 155.994 38.342Z" fill="white"/>
<path d="M10.0019 36.0205C9.985 36.0711 9.94819 36.0974 9.88574 36.1217C9.90071 36.0785 9.94132 36.0374 10.0019 36.0205Z" fill="white"/>
<path d="M185.06 14.2106C184.538 16.4655 183.287 18.1385 181.255 19.1737C180.24 19.6913 179.132 19.9504 177.978 19.9504C177.322 19.9504 176.665 19.9508 176.009 19.9502C175.396 19.9497 175.043 19.598 175.042 18.974C175.04 16.444 175.041 13.9139 175.041 11.3838C175.041 9.16881 175.041 6.95378 175.041 4.67943C175.549 4.67943 176.048 4.68684 176.548 4.67797C177.79 4.65592 179.031 4.66168 180.227 5.06058C182.272 5.74263 183.752 7.04591 184.62 9.04133C185.149 10.2595 185.351 11.5284 185.294 12.84C185.274 13.2876 185.143 13.7304 185.06 14.2106Z" fill="#001126"/>
<path d="M74.4472 9.72179C75.0195 10.9799 75.5745 12.211 76.1326 13.4408C76.5323 14.3215 76.9389 15.199 77.3367 16.0806C77.5341 16.518 77.3446 16.8217 76.8582 16.8283C76.0519 16.8392 75.2453 16.8313 74.4388 16.8313C73.441 16.8313 72.4432 16.833 71.4454 16.8307C70.7585 16.8292 70.5667 16.5209 70.8564 15.9042C71.6514 14.2119 72.4432 12.5181 73.2364 10.8249C73.3993 10.477 73.5579 10.1269 73.727 9.78207C73.992 9.24197 74.0887 9.2319 74.4472 9.72179Z" fill="#001126"/>
<path d="M67.2437 38.3472C67.4782 37.711 67.7104 37.1077 67.9398 36.5117C68.5642 38.1638 69.1949 39.8326 69.8335 41.5225C68.5683 41.5225 67.3109 41.5225 66.0349 41.5225C66.4371 40.475 66.8393 39.4275 67.2437 38.3472Z" fill="#001126"/>
<path d="M99.5085 41.5436C99.1123 41.5436 98.7569 41.5436 98.3816 41.5436C99.0239 39.8476 99.6606 38.1664 100.288 36.5098C100.913 38.1656 101.548 39.8468 102.189 41.5436C101.298 41.5436 100.424 41.5436 99.5085 41.5436Z" fill="#001126"/>
</svg>
