<svg width="156" height="40" viewBox="0 0 156 40" fill="none" xmlns="http://www.w3.org/2000/svg">
<path d="M0.0656738 29.1876C0.591268 28.2645 1.11814 27.3667 1.64213 26.4672C2.26456 25.3987 2.8872 24.3303 3.50476 23.259C4.04784 22.3169 4.58113 21.3692 5.12405 20.427C5.74141 19.3556 6.3671 18.289 6.98463 17.2177C7.52771 16.2756 8.06189 15.3283 8.6048 14.3861C9.22214 13.3147 9.847 12.2477 10.4645 11.1764C11.0076 10.2343 11.5426 9.28749 12.0855 8.34524C12.7029 7.27387 13.3269 6.20637 13.9444 5.1351C14.4874 4.19292 15.0233 3.24659 15.5667 2.30458C15.8326 1.84354 16.1083 1.38814 16.4034 0.949219C16.4487 1.01289 16.4702 1.05754 16.4741 1.11792C16.4513 1.1647 16.4349 1.19902 16.4427 1.22631C16.834 2.58175 17.229 3.93611 17.6199 5.29165C17.9265 6.35496 18.2216 7.42163 18.5354 8.48282C18.6666 8.92661 18.8327 9.36007 18.983 9.79823C18.887 10.0311 18.8162 10.2786 18.6907 10.4944C17.9682 11.7375 17.2329 12.9731 16.5016 14.211C15.8085 15.3843 15.1117 16.5554 14.4226 17.7311C13.7818 18.8244 13.1513 19.9237 12.5122 21.018C11.8301 22.1857 11.1423 23.3501 10.4589 24.5171C9.87792 25.5093 9.29892 26.5027 8.72057 27.4965C8.46854 27.9296 8.2204 28.3649 7.99137 28.8169C8.01224 28.8346 8.01752 28.8363 8.00157 28.8169C7.95313 28.8305 7.92065 28.8633 7.8686 28.9078C7.77728 29.0145 7.69528 29.1037 7.6353 29.2058C6.8731 30.5031 6.11222 31.8012 5.35492 33.1015C4.92234 33.8442 4.4969 34.5911 4.05129 35.3483C4.00146 35.4369 3.96859 35.5134 3.93572 35.5899C3.69251 35.2086 3.44342 34.8309 3.20713 34.4454C2.23845 32.8648 1.27364 31.2819 0.307557 29.6998C0.241198 29.5911 0.176046 29.4817 0.088003 29.3663C0.0656737 29.3108 0.0656737 29.2615 0.0656738 29.1876Z" fill="#0060D3"/>
<path d="M77.4077 0.0654297C77.7857 0.140023 78.1359 0.203161 78.4797 0.29127C79.7078 0.605996 80.8212 1.16731 81.8562 1.89076C82.1094 2.06776 82.3663 2.2432 82.5979 2.44623C82.7617 2.58988 82.7984 2.78477 82.6397 2.97481C82.4192 3.23874 82.2061 3.50914 81.9771 3.76548C81.6807 4.09739 81.3708 4.41717 81.0687 4.74408C80.8576 4.97255 80.6691 4.95189 80.4382 4.7468C79.483 3.8983 78.3732 3.38953 77.0999 3.21104C76.1609 3.07941 75.2603 3.1606 74.3997 3.55291C73.7623 3.84352 73.4079 4.37343 73.3774 5.06269C73.3539 5.5942 73.6343 6.03958 73.9833 6.42871C74.6672 7.19141 75.5781 7.60193 76.485 8.01021C78.099 8.73686 79.7823 9.31964 81.2355 10.3732C82.3381 11.1724 83.111 12.1979 83.339 13.5511C83.6199 15.2184 83.2132 16.7095 81.9627 17.8973C81.1191 18.6986 80.0837 19.1652 78.9615 19.4396C78.0879 19.6532 77.1973 19.76 76.3004 19.6987C74.5786 19.5812 72.9222 19.2072 71.4888 18.1873C70.9466 17.8015 70.4684 17.323 69.9783 16.8681C69.7797 16.6837 69.779 16.4495 70.0072 16.2682C70.636 15.769 71.2681 15.2738 71.9047 14.7847C72.09 14.6424 72.2875 14.6988 72.4229 14.8593C73.2202 15.8041 74.2882 16.2733 75.4586 16.4655C76.61 16.6545 77.7918 16.6807 78.8953 16.2076C79.6647 15.8777 80.3431 15.3566 80.2644 14.2542C80.2179 13.6022 79.8218 13.169 79.341 12.8127C78.3317 12.0646 77.1506 11.6482 76.0047 11.1756C74.618 10.6037 73.2158 10.0545 72.034 9.11306C71.1123 8.37872 70.4107 7.47695 70.2716 6.22649C70.1014 4.69687 70.4585 3.31011 71.3811 2.10232C72.1056 1.15385 73.1197 0.596471 74.2837 0.330838C74.6677 0.243205 75.0588 0.186859 75.4573 0.090818C76.1043 0.0654294 76.7406 0.0654294 77.4077 0.0654297Z" fill="#003580"/>
<path d="M16.4917 1.10177C16.4702 1.05712 16.4487 1.01247 16.4268 0.948995C18.5489 0.926661 20.6716 0.919116 22.7942 0.922743C23.2713 0.923558 23.7491 0.953672 24.2248 0.992955C24.3279 1.00148 24.464 1.08344 24.5158 1.17199C25.4349 2.74197 26.3464 4.31643 27.2532 5.8936C28.1332 7.42429 29.0023 8.96127 29.883 10.4916C30.8383 12.1516 31.8044 13.8054 32.7602 15.4651C33.5506 16.8376 34.3291 18.2168 35.1195 19.5892C35.9045 20.9522 36.7021 22.3079 37.4862 23.6713C38.2117 24.933 38.9256 26.2013 39.6468 27.4655C39.9755 28.0417 40.31 28.6147 40.6408 29.1898C40.7339 29.3515 40.7248 29.4773 40.6105 29.6572C39.3661 31.6159 38.1401 33.5863 36.9078 35.5527C36.8805 35.5962 36.8377 35.6299 36.766 35.707C31.3216 26.3079 25.8923 16.9348 20.4436 7.52793C20.3984 7.41371 20.3876 7.3237 20.3441 7.25413C19.062 5.2021 17.7766 3.15209 16.4917 1.10177Z" fill="#00B7F7"/>
<path d="M119.95 1.49273C120.759 2.34616 121.554 3.18065 122.344 4.02029C122.917 4.62886 123.481 5.24512 124.051 5.85644C124.969 6.84142 125.889 7.82488 126.807 8.80951C127.399 9.44461 127.991 10.0798 128.582 10.7166C128.928 11.0904 129.271 11.4675 129.616 11.8432C129.654 11.8428 129.692 11.8424 129.73 11.8421C129.77 11.6852 129.847 11.5284 129.847 11.3714C129.854 8.03281 129.852 4.6942 129.852 1.3556C129.852 0.83717 129.902 0.787978 130.428 0.78794C131.15 0.787889 131.873 0.798525 132.595 0.783045C132.912 0.776245 133.01 0.901096 133.009 1.20764C133.003 6.97631 133.004 12.745 133.009 18.5136C133.009 18.8064 132.9 18.8816 132.613 18.9292C131.961 19.0372 131.607 18.6409 131.24 18.2338C130.871 17.8241 130.513 17.4051 130.136 17.0023C129.372 16.184 128.595 15.3766 127.829 14.5594C126.953 13.6249 126.084 12.6845 125.211 11.7469C124.62 11.1111 124.024 10.479 123.437 9.83919C122.793 9.13726 122.157 8.42825 121.516 7.7228C121.489 7.69267 121.456 7.66738 121.379 7.59727C121.379 7.76121 121.379 7.87529 121.379 7.98937C121.379 11.4484 121.378 14.9074 121.38 18.3664C121.381 18.9427 121.247 18.9294 120.829 18.9205C120.085 18.9046 119.34 18.8967 118.596 18.9252C118.286 18.9372 118.201 18.7891 118.164 18.5444C118.152 18.4695 118.161 18.3914 118.161 18.3148C118.161 12.6994 118.161 7.08394 118.161 1.46852C118.161 0.810396 118.454 0.627398 119.141 0.807657C119.525 0.908385 119.699 1.21934 119.95 1.49273Z" fill="#003580"/>
<path d="M136.88 2.2988C136.88 1.92662 136.901 1.58555 136.874 1.2484C136.848 0.92284 136.94 0.785387 137.356 0.786947C138.33 0.790598 139.305 0.788113 140.279 0.788113C141.012 0.788113 141.746 0.775511 142.479 0.790686C144.103 0.824296 145.655 1.15897 147.085 1.95793C149.302 3.19766 150.63 5.10553 151.267 7.53668C151.537 8.56505 151.592 9.61343 151.516 10.6579C151.383 12.4829 150.755 14.1453 149.623 15.5899C148.375 17.182 146.698 18.1328 144.769 18.6397C143.981 18.8466 143.167 18.9375 142.34 18.9242C140.676 18.8974 139.012 18.9163 137.348 18.9161C136.9 18.9161 136.88 18.8967 136.88 18.4563C136.88 13.0814 136.88 7.70653 136.88 2.2988ZM148.05 11.3406C148.114 10.9845 148.22 10.6303 148.235 10.2722C148.281 9.22293 148.119 8.2078 147.696 7.23329C147.002 5.63696 145.818 4.59433 144.182 4.0487C143.225 3.72957 142.232 3.72497 141.238 3.74261C140.839 3.7497 140.439 3.74378 140.033 3.74378C140.033 5.56326 140.033 7.33527 140.033 9.10729C140.033 11.1313 140.032 13.1554 140.034 15.1794C140.034 15.6786 140.317 15.96 140.807 15.9604C141.332 15.9609 141.857 15.9605 142.382 15.9605C143.306 15.9605 144.192 15.7533 145.004 15.3392C146.63 14.5111 147.631 13.1726 148.05 11.3406Z" fill="#003580"/>
<path d="M54.3844 10.5075C54.9137 9.32391 55.4369 8.16427 55.9663 7.00747C56.377 6.11005 56.7959 5.2164 57.2103 4.32068C57.736 3.18455 58.2614 2.04832 58.7854 0.911413C58.8857 0.693697 59.0201 0.528117 59.2857 0.525419C59.5516 0.522719 59.6428 0.712263 59.7342 0.913548C60.519 2.6421 61.3027 4.37117 62.0945 6.09657C62.5503 7.08994 63.027 8.07373 63.4824 9.06728C64.2867 10.8219 65.0796 12.5817 65.8817 14.3374C66.5166 15.7271 67.1598 17.1131 67.7955 18.5024C67.93 18.7964 67.8582 18.9147 67.5541 18.9157C66.7005 18.9185 65.8469 18.9106 64.9934 18.9203C64.7303 18.9234 64.5991 18.7673 64.5032 18.5713C64.256 18.0662 64.0133 17.5585 63.7878 17.0436C63.6005 16.616 63.2465 16.4307 62.8262 16.4281C60.4406 16.4131 58.0549 16.424 55.6692 16.4181C55.1857 16.4169 54.7902 16.8341 54.6602 17.1122C54.4222 17.6213 54.2108 18.1437 53.9508 18.641C53.8833 18.7701 53.6793 18.9006 53.5344 18.9046C52.6596 18.9289 51.7838 18.914 50.9083 18.9183C50.6375 18.9196 50.5844 18.7986 50.6874 18.5721C51.0518 17.7707 51.4173 16.9698 51.7822 16.1686C52.5691 14.441 53.3552 12.7131 54.1439 10.9863C54.2146 10.8313 54.3016 10.6838 54.3844 10.5075ZM59.5451 7.7555C59.271 7.38561 59.1936 7.39367 58.9817 7.82575C58.8463 8.10165 58.7195 8.38171 58.5891 8.66003C57.9546 10.0146 57.3212 11.3696 56.6852 12.7234C56.4534 13.2168 56.6068 13.4634 57.1563 13.4647C57.9546 13.4665 58.7528 13.4651 59.5511 13.4651C60.1963 13.4651 60.8415 13.4715 61.4866 13.4627C61.8757 13.4575 62.0273 13.2145 61.8694 12.8646C61.5512 12.1593 61.2259 11.4573 60.9061 10.7527C60.4596 9.76889 60.0156 8.78399 59.5451 7.7555Z" fill="#003580"/>
<path d="M93.0364 16.0769C93.4896 16.1333 93.9167 16.2134 94.3435 16.212C94.781 16.2105 95.2253 16.1637 95.654 16.0753C96.3651 15.9285 97.0414 15.685 97.6121 15.2025C97.8455 15.0052 98.0897 15.0818 98.2799 15.349C98.6819 15.9135 99.0878 16.4753 99.4986 17.0333C99.7159 17.3284 99.7027 17.5671 99.4223 17.785C98.4817 18.516 97.4297 19.0274 96.2462 19.1655C95.3012 19.2758 94.3366 19.354 93.3909 19.2916C91.5498 19.1701 89.8408 18.5817 88.391 17.4094C86.7092 16.0497 85.7094 14.2653 85.2438 12.1567C85.0273 11.1758 84.9287 10.1879 85.0026 9.19789C85.1529 7.18532 85.7374 5.31584 87.0244 3.71373C87.8234 2.7192 88.7719 1.90028 89.9245 1.3488C90.818 0.92127 91.7548 0.606608 92.754 0.52515C93.302 0.480479 93.85 0.402264 94.3981 0.401377C95.5211 0.399558 96.5985 0.657235 97.6256 1.10533C98.1901 1.35165 98.7432 1.62602 99.2922 1.90578C99.7197 2.12364 99.7542 2.29251 99.4886 2.67869C99.1448 3.17853 98.7977 3.6761 98.4527 4.17507C98.4287 4.20967 98.4142 4.25121 98.3882 4.28386C97.9831 4.79244 98.0218 4.84875 97.4374 4.47381C96.7169 4.01154 95.9372 3.71379 95.0712 3.59941C93.8834 3.44256 92.7566 3.62546 91.6913 4.116C90.0783 4.85866 89.0921 6.16682 88.6115 7.84738C88.1465 9.47317 88.2099 11.0857 88.8846 12.6579C89.4475 13.9699 90.358 14.9611 91.6327 15.5927C92.0639 15.8064 92.5495 15.9106 93.0364 16.0769Z" fill="#003580"/>
<path d="M3.96167 35.5936C3.96851 35.5131 4.00138 35.4366 4.07435 35.3463C4.28796 35.1573 4.46452 34.985 4.63445 34.8065C5.45304 33.9464 6.26768 33.0825 7.08783 32.2239C8.11914 31.1443 9.1549 30.0689 10.1878 28.9908C10.6325 28.5267 11.0761 28.0615 11.5164 27.5931C11.5656 27.5409 11.5897 27.465 11.6255 27.4001C12.5131 27.0243 13.3996 26.6455 14.2888 26.2733C15.4913 25.7699 16.6958 25.2713 17.8997 24.7712C18.6826 24.4459 19.4623 24.1124 20.2535 23.8089C20.3485 23.7724 20.5458 23.8657 20.6295 23.9585C21.2288 24.6234 21.8125 25.3025 22.3983 25.9795C23.2235 26.9331 24.0435 27.8913 24.8734 28.8408C24.9857 28.9693 25.1424 29.0591 25.3421 29.2171C24.5528 29.4615 23.8832 29.6754 23.2096 29.8758C22.2244 30.169 21.2351 30.4486 20.2496 30.7408C18.0453 31.3946 15.8421 32.0522 13.6387 32.709C11.3641 33.387 9.08958 34.0651 6.81554 34.7449C5.87225 35.0268 4.93027 35.3132 3.96167 35.5936Z" fill="#00447C"/>
<path d="M111.593 11.363C108.881 11.363 106.201 11.3617 103.522 11.3641C103.022 11.3646 102.97 11.2609 102.983 10.8295C103.004 10.1521 102.995 9.47347 102.985 8.79555C102.981 8.52193 103.077 8.40343 103.364 8.40384C107.027 8.40908 110.691 8.40945 114.355 8.40332C114.657 8.40282 114.755 8.523 114.75 8.81289C114.737 9.5126 114.747 10.2127 114.745 10.9126C114.744 11.2772 114.656 11.3618 114.283 11.3625C113.397 11.364 112.512 11.363 111.593 11.363Z" fill="#003580"/>
<path d="M111.987 0.788155C112.774 0.788155 113.529 0.787016 114.284 0.78864C114.657 0.789443 114.744 0.87388 114.745 1.23885C114.747 1.92784 114.748 2.61686 114.745 3.30586C114.743 3.68017 114.678 3.74362 114.314 3.74365C110.683 3.74393 107.052 3.74395 103.421 3.74364C103.022 3.7436 102.989 3.71107 102.989 3.31473C102.988 2.60385 102.997 1.89281 102.984 1.18217C102.979 0.882264 103.098 0.783507 103.391 0.784183C106.245 0.79078 109.1 0.788155 111.987 0.788155Z" fill="#003580"/>
<path d="M108.637 15.9602C110.509 15.9602 112.348 15.9599 114.187 15.9605C114.635 15.9606 114.745 16.0696 114.745 16.5065C114.746 17.1742 114.737 17.8421 114.75 18.5096C114.755 18.7995 114.658 18.9204 114.355 18.9199C110.699 18.9137 107.043 18.9138 103.386 18.9199C103.09 18.9204 102.979 18.8134 102.984 18.517C102.998 17.8386 102.988 17.1598 102.989 16.4811C102.989 16.0322 103.057 15.9613 103.514 15.9609C105.211 15.9593 106.908 15.9602 108.637 15.9602Z" fill="#003580"/>
<path d="M70.6732 34.5485C70.6732 35.2143 70.6732 35.8473 70.6732 36.5187C70.4213 36.5187 70.1832 36.5342 69.949 36.5109C69.8589 36.502 69.7505 36.4235 69.6963 36.345C68.6569 34.84 67.627 33.3284 66.5892 31.8222C66.0347 31.0176 65.4691 30.2208 64.9095 29.4218C64.9095 31.7577 64.9095 34.118 64.9095 36.4986C64.6338 36.4986 64.3886 36.4986 64.124 36.4986C64.124 33.6744 64.124 30.8469 64.124 27.9806C64.3567 27.9806 64.5948 27.9652 64.8291 27.9884C64.9192 27.9974 65.0275 28.0757 65.0819 28.1541C66.1853 29.7445 67.281 31.3401 68.3806 32.9331C68.8752 33.6496 69.3747 34.3626 69.8688 35.0728C69.8688 32.7413 69.8688 30.3812 69.8688 28.0007C70.1445 28.0007 70.3897 28.0007 70.6732 28.0007C70.6732 30.1702 70.6732 32.3429 70.6732 34.5485Z" fill="#003580"/>
<path d="M149.958 29.2927C149.443 29.733 149.449 29.7269 148.975 29.2733C148.568 28.8841 148.071 28.7041 147.513 28.6296C146.954 28.5548 146.444 28.6465 145.946 28.8971C145.224 29.2604 144.868 30.1606 145.433 30.8903C145.745 31.2933 146.244 31.4102 146.723 31.528C147.505 31.7201 148.296 31.8846 149.062 32.128C149.863 32.3828 150.367 33.0097 150.427 33.9332C150.526 35.4533 149.477 36.3609 148.253 36.5761C146.919 36.8105 145.632 36.6861 144.564 35.7451C144.26 35.4768 144.052 35.0988 143.773 34.7377C144.067 34.5376 144.311 34.3721 144.583 34.1868C144.87 34.8563 145.309 35.3671 145.963 35.639C147.023 36.0799 148.071 36.0648 149.022 35.3635C149.442 35.0536 149.596 34.5499 149.544 34.044C149.479 33.413 149.066 33.0147 148.47 32.846C147.767 32.6471 147.044 32.5152 146.345 32.306C145.895 32.1712 145.453 31.9821 145.039 31.7585C144.512 31.474 144.327 30.9662 144.302 30.3896C144.278 29.8558 144.327 29.3514 144.66 28.892C145.056 28.3466 145.615 28.0605 146.229 27.9277C147.379 27.6787 148.493 27.8011 149.483 28.5082C149.676 28.6457 149.849 28.8182 150.001 28.9991C150.046 29.0525 149.992 29.1904 149.958 29.2927Z" fill="#003580"/>
<path d="M51.3612 34.8043C51.9547 33.2143 52.5469 31.6507 53.1379 30.0867C53.3811 29.4431 53.6155 28.7961 53.8706 28.1573C53.9026 28.0772 54.0343 27.993 54.1248 27.9872C54.8352 27.9418 54.8213 27.9529 55.0778 28.6375C55.7275 30.3717 56.3935 32.0998 57.0484 33.8321C57.3845 34.721 57.7109 35.6135 58.0439 36.5104C57.7187 36.5104 57.4132 36.5104 57.1034 36.5104C56.8187 35.7416 56.5349 34.9789 56.2544 34.2151C56.1904 34.0408 56.106 33.9472 55.8879 33.9504C54.8593 33.9654 53.8303 33.9625 52.8016 33.9524C52.6031 33.9505 52.5343 34.0189 52.4715 34.2036C52.2258 34.9249 51.9571 35.6384 51.6863 36.3508C51.6596 36.4209 51.5633 36.5058 51.4939 36.5109C51.2372 36.53 50.9782 36.5185 50.6858 36.5185C50.9213 35.9283 51.1404 35.3794 51.3612 34.8043ZM53.7932 30.7037C53.4714 31.5417 53.1497 32.3797 52.8279 33.2177C53.8487 33.2177 54.8546 33.2177 55.8668 33.2177C55.3559 31.8658 54.8514 30.5308 54.3519 29.2091C54.1683 29.6858 53.9826 30.1685 53.7932 30.7037Z" fill="#003580"/>
<path d="M83.2165 34.6187C83.4527 35.258 83.6872 35.8709 83.9294 36.5042C83.609 36.5042 83.3102 36.5042 82.985 36.5042C82.671 35.6711 82.3511 34.8224 82.025 33.9575C80.8707 33.9575 79.7231 33.9541 78.5756 33.9656C78.5034 33.9663 78.3963 34.07 78.3666 34.1488C78.1016 34.8517 77.8403 35.5565 77.602 36.2687C77.5393 36.4561 77.4715 36.54 77.2681 36.523C77.0512 36.5049 76.8317 36.519 76.571 36.519C76.8206 35.8766 77.0631 35.262 77.2986 34.6446C77.7627 33.4284 78.2248 32.2114 78.6841 30.9934C79.0424 30.0429 79.3918 29.089 79.7573 28.1413C79.7853 28.0687 79.9064 27.993 79.9894 27.9867C80.7056 27.9327 80.6922 27.9426 80.9484 28.6263C81.5983 30.3605 82.2617 32.0897 82.9198 33.8208C83.0176 34.0782 83.1164 34.3352 83.2165 34.6187ZM79.6393 33.2349C80.3389 33.2349 81.0384 33.2349 81.7513 33.2349C81.2386 31.8774 80.7306 30.5324 80.2302 29.2078C79.7283 30.5331 79.219 31.878 78.7052 33.2349C79.0054 33.2349 79.2897 33.2349 79.6393 33.2349Z" fill="#003580"/>
<path d="M137.688 30.2976C137.52 30.5059 137.46 30.351 137.415 30.2371C137.208 29.7133 136.877 29.2881 136.404 28.9846C135.498 28.4029 134.414 28.4505 133.569 29.09C132.751 29.7095 132.482 30.5916 132.341 31.5566C132.223 32.3627 132.311 33.1414 132.549 33.9039C132.833 34.8136 133.379 35.4938 134.327 35.8022C135.455 36.1696 136.808 35.6297 137.305 34.5534C137.376 34.3996 137.46 34.2518 137.554 34.0692C137.78 34.1914 137.996 34.2941 138.193 34.4267C138.24 34.4586 138.257 34.6061 138.227 34.6724C137.723 35.7759 136.729 36.6116 135.394 36.6548C134.54 36.6824 133.725 36.6058 133.001 36.0919C132.207 35.5287 131.737 34.7403 131.578 33.8135C131.447 33.0513 131.384 32.2546 131.448 31.4864C131.566 30.0827 132.057 28.8251 133.439 28.1752C135.131 27.3794 137.479 27.8574 138.264 29.9289C138.082 30.0447 137.895 30.1636 137.688 30.2976Z" fill="#003580"/>
<path d="M102.463 35.5988C102.463 34.997 102.422 34.4242 102.474 33.86C102.528 33.2831 102.315 32.8269 102.025 32.3641C101.119 30.918 100.229 29.4621 99.3147 27.9802C99.6512 27.9802 99.9543 27.9712 100.256 27.9867C100.33 27.9905 100.426 28.0588 100.466 28.125C101.275 29.447 102.078 30.773 102.895 32.1213C103.293 31.4988 103.688 30.8877 104.076 30.2726C104.523 29.5628 104.962 28.8476 105.414 28.1407C105.462 28.0666 105.569 27.9932 105.653 27.9874C105.934 27.9683 106.216 27.9802 106.542 27.9802C106.17 28.5642 105.818 29.1171 105.465 29.6688C104.76 30.7692 104.052 31.8674 103.354 32.9715C103.29 33.0716 103.256 33.2075 103.255 33.3271C103.248 34.3766 103.251 35.4261 103.251 36.4972C102.994 36.4972 102.749 36.4972 102.463 36.4972C102.463 36.2137 102.463 35.9226 102.463 35.5988Z" fill="#003580"/>
<path d="M117.767 28.1838C117.767 28.3661 117.767 28.5172 117.767 28.6964C116.846 28.6964 115.944 28.6964 115.016 28.6964C115.016 31.3105 115.016 33.8965 115.016 36.5008C114.745 36.5008 114.5 36.5008 114.228 36.5008C114.228 33.9124 114.228 31.3263 114.228 28.7118C113.301 28.7118 112.399 28.7118 111.479 28.7118C111.479 28.439 111.479 28.1939 111.479 27.9253C111.555 27.9218 111.628 27.9154 111.701 27.9154C113.626 27.9149 115.551 27.9156 117.475 27.9138C117.645 27.9136 117.822 27.8871 117.767 28.1838Z" fill="#003580"/>
<path d="M89.9836 31.5267C89.9836 30.3359 89.9836 29.178 89.9836 28C90.2436 28 90.4887 28 90.7611 28C90.7611 30.5836 90.7611 33.17 90.7611 35.7843C92.3454 35.7843 93.9034 35.7843 95.481 35.7843C95.481 36.0346 95.481 36.2577 95.481 36.4999C93.6625 36.4999 91.8421 36.4999 89.9836 36.4999C89.9836 34.8537 89.9836 33.2066 89.9836 31.5267Z" fill="#003580"/>
<path d="M11.6007 27.3955C11.5897 27.4649 11.5656 27.5407 11.5164 27.593C11.0761 28.0613 10.6325 28.5265 10.1878 28.9907C9.1549 30.0688 8.11914 31.1442 7.08783 32.2238C6.26768 33.0824 5.45305 33.9462 4.63446 34.8063C4.46452 34.9849 4.28797 35.1571 4.09131 35.334C4.49682 34.5907 4.92225 33.8438 5.35484 33.101C6.11214 31.8008 6.87301 30.5027 7.63522 29.2054C7.6952 29.1033 7.77719 29.0141 7.88903 28.909C7.95854 28.878 7.98799 28.857 8.01744 28.8359C8.01744 28.8359 8.01216 28.8342 8.011 28.8367C9.19858 28.3564 10.3873 27.8737 11.6007 27.3955Z" fill="#003580"/>
<path d="M16.474 1.11719C17.7766 3.15178 19.0619 5.20179 20.3441 7.25382C20.3875 7.32339 20.3983 7.4134 20.4217 7.5181C19.9567 8.29017 19.4942 9.03801 19.0074 9.79167C18.8327 9.35934 18.6665 8.92587 18.5353 8.48208C18.2216 7.4209 17.9264 6.35423 17.6198 5.29092C17.2289 3.93537 16.8339 2.58102 16.4427 1.22558C16.4348 1.19828 16.4513 1.16396 16.474 1.11719Z" fill="#002E64"/>
<path d="M124.795 30.673C124.795 32.6296 124.795 34.5533 124.795 36.4978C124.536 36.4978 124.291 36.4978 124.026 36.4978C124.026 33.6757 124.026 30.8488 124.026 28.001C124.265 28.001 124.51 28.001 124.795 28.001C124.795 28.8771 124.795 29.7587 124.795 30.673Z" fill="#003580"/>
<path d="M8.00159 28.8164C7.9881 28.8568 7.95865 28.8779 7.90869 28.8973C7.92067 28.8628 7.95315 28.8299 8.00159 28.8164Z" fill="white"/>
</svg>
