<svg width="393" height="351" viewBox="0 0 393 351" fill="none" xmlns="http://www.w3.org/2000/svg">
<path opacity="0.2" d="M-148.908 398.996C-144.329 388.159 -139.673 377.589 -135.057 367.007C-129.575 354.436 -124.09 341.866 -118.678 329.275C-113.918 318.203 -109.299 307.09 -104.541 296.017C-99.1316 283.425 -93.6027 270.868 -88.1907 258.277C-83.4311 247.205 -78.7991 236.095 -74.0419 225.022C-68.6327 212.43 -63.1155 199.87 -57.7038 187.279C-52.9444 176.206 -48.2997 165.1 -43.5427 154.027C-38.1337 141.435 -32.6283 128.872 -27.217 116.282C-22.4577 105.208 -17.8014 94.1053 -13.038 83.0333C-10.7066 77.6144 -8.23496 72.236 -5.47297 66.9943C-4.73309 67.5807 -4.34706 68.0121 -4.15161 68.6454C-4.33362 69.1868 -4.46413 69.5837 -4.2964 69.8578C4.03296 83.4724 12.4085 97.068 20.7334 110.684C27.2636 121.365 33.6533 132.105 40.2706 142.749C43.0379 147.2 46.2326 151.473 49.233 155.827C48.551 158.489 48.231 161.256 47.1273 163.794C40.77 178.415 34.2297 192.983 27.7467 207.567C21.6021 221.39 15.4043 235.197 9.31759 249.037C3.65733 261.907 -1.85543 274.821 -7.49151 287.698C-13.506 301.44 -19.6038 315.158 -25.6373 328.894C-30.7671 340.574 -35.8681 352.262 -40.9597 363.953C-43.1784 369.047 -45.3415 374.158 -47.217 379.408C-46.9042 379.555 -46.8317 379.562 -47.0849 379.388C-47.6793 379.628 -48.0205 380.041 -48.5871 380.615C-49.5119 381.929 -50.3585 383.037 -50.8888 384.239C-57.6288 399.515 -64.3498 414.797 -71.0193 430.093C-74.8291 438.831 -78.5364 447.599 -82.4799 456.517C-82.9111 457.556 -83.1523 458.433 -83.3934 459.31C-87.4599 455.743 -91.5939 452.226 -95.5811 448.6C-111.927 433.737 -128.228 418.84 -144.543 403.955C-145.664 402.932 -146.771 401.9 -148.188 400.849C-148.611 400.304 -148.73 399.781 -148.908 398.996Z" fill="white"/>
<path opacity="0.2" d="M-3.97171 68.394C-4.35788 67.9627 -4.74405 67.5314 -5.1814 66.9011C22.2316 62.4659 49.6861 58.1867 77.1673 54.0261C83.3443 53.0909 89.6014 52.4653 95.8521 51.9413C97.2079 51.8277 99.1661 52.4285 100.051 53.2659C115.734 68.111 131.329 83.0187 146.87 97.9646C161.953 112.47 176.909 127.064 191.998 141.564C208.367 157.293 224.861 172.935 241.236 188.66C254.776 201.663 268.179 214.762 281.72 227.765C295.167 240.678 308.761 253.489 322.199 266.409C334.633 278.365 346.932 290.414 359.316 302.405C364.961 307.871 370.671 313.291 376.34 318.74C377.935 320.273 378.121 321.626 377.076 323.761C365.695 347.013 354.581 370.351 343.375 393.66C343.127 394.175 342.653 394.618 341.912 395.578C248.773 306.588 155.891 217.845 62.6786 128.782C61.8169 127.659 61.4605 126.725 60.7301 126.073C39.1857 106.829 17.604 87.6139 -3.97171 68.394Z" fill="white"/>
<path opacity="0.2" d="M-82.9363 459.262C-83.0419 458.394 -82.801 457.517 -82.0745 456.414C-79.7658 453.985 -77.8962 451.807 -76.1275 449.576C-67.6075 438.828 -59.1478 428.048 -50.604 417.313C-39.8605 403.814 -29.0491 390.351 -18.2813 376.865C-13.6455 371.058 -9.02585 365.243 -4.45692 359.402C-3.94681 358.749 -3.81736 357.897 -3.51139 357.137C7.07074 351.392 17.63 345.618 28.2406 339.909C42.5902 332.187 56.9771 324.512 71.3519 316.822C80.7002 311.822 89.9877 306.739 99.4962 301.952C100.638 301.377 103.416 301.977 104.723 302.797C114.084 308.669 123.276 314.722 132.492 320.748C145.473 329.237 158.397 337.784 171.428 346.22C173.192 347.362 175.437 348.005 178.403 349.287C168.776 353.443 160.626 357.038 152.391 360.498C140.347 365.558 128.218 370.482 116.168 375.534C89.2149 386.833 62.2861 398.172 35.3522 409.502C7.5487 421.198 -20.2544 432.894 -48.0469 444.608C-59.5755 449.466 -71.0763 454.369 -82.9363 459.262Z" fill="white"/>
<path opacity="0.2" d="M-4.15788 68.6137C17.6084 87.6317 39.1901 106.847 60.7345 126.091C61.4649 126.743 61.8213 127.677 62.3771 128.742C58.2209 137.856 54.0396 146.709 49.556 155.671C46.252 151.428 43.056 147.156 40.2873 142.705C33.6668 132.063 27.2737 121.325 20.7402 110.646C12.4111 97.0318 4.0313 83.4385 -4.30229 69.8262C-4.4701 69.5521 -4.33971 69.1552 -4.15788 68.6137Z" fill="#A6ACB3"/>
</svg>
