<svg width="212" height="352" viewBox="0 0 212 352" fill="none" xmlns="http://www.w3.org/2000/svg">
<g opacity="0.6">
<path opacity="0.1" d="M13.7568 266.315C21.3636 257.484 28.9306 248.93 36.4701 240.351C45.4261 230.161 54.3841 219.972 63.2935 209.741C71.1286 200.744 78.87 191.665 86.7035 182.666C95.6111 172.434 104.598 162.271 113.507 152.04C121.342 143.042 129.092 133.971 136.926 124.972C145.833 114.739 154.812 104.57 163.721 94.3386C171.556 85.3408 179.314 76.2765 187.148 67.2773C196.055 57.0449 205.026 46.8685 213.935 36.6375C221.77 27.6394 229.536 18.5815 237.374 9.58588C241.21 5.18319 245.139 0.861944 249.242 -3.2411C249.596 -2.45994 249.733 -1.93383 249.648 -1.27561C249.304 -0.820048 249.054 -0.485271 249.081 -0.174789C250.434 15.2442 251.829 30.6594 253.177 46.0787C254.234 58.1738 255.161 70.2809 256.3 82.3682C256.776 87.4231 257.65 92.4405 258.344 97.475C256.818 99.7796 255.534 102.295 253.728 104.354C243.326 116.213 232.802 127.964 222.316 139.75C212.378 150.919 202.405 162.058 192.505 173.262C183.299 183.68 174.191 194.186 165.001 204.619C155.194 215.752 145.331 226.837 135.511 237.959C127.162 247.416 118.832 256.89 110.508 266.369C106.881 270.5 103.291 274.664 99.8713 279.047C100.059 279.281 100.112 279.311 99.981 279.069C99.431 279.112 99.0119 279.398 98.3577 279.766C97.1492 280.723 96.0783 281.51 95.2171 282.483C84.2733 294.842 73.3422 307.213 62.4452 319.614C56.2206 326.697 50.0641 333.841 43.6687 341.053C42.9452 341.903 42.4298 342.657 41.9145 343.411C40.1006 338.793 38.2157 334.201 36.4852 329.551C29.3909 310.49 22.3433 291.412 15.2804 272.339C14.7952 271.029 14.3246 269.714 13.6201 268.286C13.497 267.641 13.6009 267.11 13.7568 266.315Z" fill="white"/>
<path opacity="0.1" d="M249.867 -1.40457C249.73 -1.93068 249.592 -2.45678 249.49 -3.18653C272.385 1.05097 295.255 5.44865 318.1 9.96657C323.235 10.9821 328.316 12.3146 333.354 13.7411C334.447 14.0505 335.739 15.22 336.11 16.2828C342.693 35.1254 349.184 54.0002 355.619 72.8941C361.864 91.2312 367.978 109.613 374.231 127.948C381.013 147.836 387.926 167.68 394.714 187.567C400.327 204.011 405.799 220.503 411.413 236.947C416.989 253.277 422.716 269.556 428.281 285.891C433.43 301.005 438.44 316.167 443.537 331.299C445.861 338.197 448.252 345.072 450.601 351.962C451.262 353.9 450.898 355.235 449.288 356.93C431.758 375.393 414.4 394.021 396.983 412.591C396.598 413.002 396.065 413.275 395.131 413.953C356.347 301.27 317.669 188.898 278.855 76.1217C278.609 74.7963 278.683 73.8045 278.362 72.9638C268.888 48.1652 259.374 23.3815 249.867 -1.40457Z" fill="white"/>
<path opacity="0.1" d="M42.1866 343.507C42.4301 342.655 42.9454 341.901 43.9217 341.082C46.6204 339.497 48.8848 338.015 51.0912 336.452C61.7193 328.919 72.3129 321.337 82.9548 313.824C96.3364 304.376 109.757 294.983 123.153 285.555C128.92 281.496 134.678 277.424 140.407 273.311C141.046 272.851 141.466 272.086 141.988 271.463C152.338 269.289 162.681 267.081 173.04 264.95C187.049 262.068 201.07 259.241 215.086 256.397C224.202 254.547 233.301 252.602 242.46 251.003C243.56 250.811 245.487 252.232 246.192 253.408C251.242 261.831 256.093 270.374 260.972 278.899C267.844 290.907 274.651 302.953 281.582 314.927C282.52 316.548 284.018 317.845 285.835 319.968C276.82 320.934 269.16 321.824 261.485 322.561C250.259 323.638 239.018 324.561 227.791 325.628C202.679 328.015 177.57 330.447 152.461 332.869C126.541 335.369 100.622 337.87 74.7038 340.391C63.9529 341.436 53.2068 342.532 42.1866 343.507Z" fill="white"/>
<path opacity="0.1" d="M141.728 271.383C141.462 272.106 141.043 272.872 140.403 273.331C134.674 277.444 128.916 281.517 123.149 285.576C109.753 295.004 96.3327 304.396 82.9511 313.844C72.3092 321.357 61.7157 328.939 51.0875 336.472C48.8811 338.036 46.6167 339.518 44.1263 341.007C50.0606 333.859 56.2171 326.716 62.4418 319.632C73.3387 307.231 84.2699 294.86 95.2136 282.501C96.0748 281.528 97.1458 280.741 98.5715 279.846C99.3854 279.659 99.7469 279.494 100.109 279.329C100.109 279.329 100.055 279.3 100.038 279.324C113.837 276.66 127.654 273.971 141.728 271.383Z" fill="#8C949D"/>
</g>
</svg>
