<svg width="331" height="348" viewBox="0 0 331 348" fill="none" xmlns="http://www.w3.org/2000/svg">
<path opacity="0.2" d="M68.0283 260.375C72.6072 249.538 77.2637 238.968 81.8789 228.386C87.3612 215.815 92.8463 203.245 98.2587 190.654C103.018 179.582 107.638 168.469 112.395 157.396C117.805 144.804 123.334 132.247 128.746 119.656C133.505 108.583 138.137 97.4739 142.894 86.4005C148.304 73.8092 153.821 61.249 159.232 48.6584C163.992 37.5854 168.637 26.4793 173.394 15.4056C178.803 2.81439 184.308 -9.74894 189.719 -22.3394C194.479 -33.4127 199.135 -44.5158 203.898 -55.5878C206.23 -61.0067 208.701 -66.3851 211.463 -71.6268C212.203 -71.0404 212.589 -70.609 212.785 -69.9757C212.603 -69.4343 212.472 -69.0374 212.64 -68.7633C220.969 -55.1487 229.345 -41.5531 237.67 -27.9367C244.2 -17.2558 250.59 -6.51657 257.207 4.12772C259.974 8.57918 263.169 12.852 266.169 17.2061C265.487 19.8676 265.167 22.6349 264.064 25.1731C257.706 39.7942 251.166 54.3618 244.683 68.9461C238.538 82.7689 232.341 96.5758 226.254 110.416C220.594 123.286 215.081 136.2 209.445 149.077C203.43 162.819 197.332 176.537 191.299 190.273C186.169 201.953 181.068 213.641 175.977 225.331C173.758 230.426 171.595 235.537 169.719 240.787C170.032 240.934 170.105 240.941 169.851 240.767C169.257 241.007 168.916 241.42 168.349 241.994C167.424 243.308 166.578 244.416 166.047 245.618C159.307 260.894 152.586 276.176 145.917 291.472C142.107 300.21 138.4 308.978 134.456 317.895C134.025 318.935 133.784 319.812 133.543 320.689C129.476 317.122 125.342 313.605 121.355 309.979C105.01 295.116 88.7086 280.219 72.3929 265.334C71.2721 264.311 70.1653 263.279 68.7478 262.228C68.325 261.683 68.2063 261.16 68.0283 260.375Z" fill="white"/>
<path opacity="0.2" d="M212.965 -70.2271C212.578 -70.6584 212.192 -71.0897 211.755 -71.72C239.168 -76.1552 266.622 -80.4344 294.104 -84.595C300.281 -85.5302 306.538 -86.1558 312.788 -86.6798C314.144 -86.7934 316.102 -86.1926 316.987 -85.3552C332.67 -70.5101 348.266 -55.6024 363.806 -40.6565C378.889 -26.1511 393.845 -11.5572 408.935 2.94298C425.304 18.6722 441.798 34.3138 458.172 50.0392C471.712 63.0423 485.115 76.1411 498.656 89.1436C512.104 102.057 525.698 114.868 539.135 127.788C551.569 139.744 563.868 151.793 576.252 163.784C581.897 169.25 587.607 174.67 593.277 180.119C594.872 181.652 595.057 183.005 594.012 185.14C582.632 208.391 571.517 231.73 560.311 255.038C560.063 255.554 559.59 255.997 558.848 256.956C465.709 167.967 372.827 79.224 279.615 -9.83915C278.753 -10.9619 278.397 -11.8959 277.666 -12.5483C256.122 -31.7918 234.54 -51.0072 212.965 -70.2271Z" fill="white"/>
<path opacity="0.2" d="M134 320.641C133.894 319.773 134.135 318.896 134.862 317.793C137.171 315.364 139.04 313.186 140.809 310.955C149.329 300.207 157.788 289.427 166.332 278.692C177.076 265.192 187.887 251.73 198.655 238.244C203.291 232.437 207.91 226.622 212.479 220.781C212.989 220.128 213.119 219.276 213.425 218.516C224.007 212.771 234.566 206.997 245.177 201.287C259.526 193.566 273.913 185.891 288.288 178.201C297.636 173.201 306.924 168.118 316.432 163.331C317.574 162.756 320.352 163.356 321.659 164.176C331.02 170.047 340.213 176.1 349.428 182.127C362.409 190.616 375.333 199.163 388.364 207.599C390.128 208.741 392.373 209.384 395.339 210.666C385.712 214.822 377.562 218.417 369.327 221.877C357.283 226.937 345.154 231.861 333.104 236.913C306.151 248.212 279.222 259.551 252.288 270.881C224.485 282.577 196.682 294.273 168.889 305.987C157.361 310.845 145.86 315.748 134 320.641Z" fill="white"/>
<path opacity="0.2" d="M213.099 218.537C213.124 219.295 212.994 220.148 212.484 220.8C207.915 226.642 203.295 232.457 198.66 238.263C187.892 251.749 177.08 265.212 166.337 278.711C157.793 289.446 149.333 300.226 140.813 310.975C139.045 313.206 137.175 315.383 135.056 317.649C138.512 308.958 142.216 300.189 146.023 291.45C152.688 276.152 159.405 260.869 166.14 245.591C166.67 244.389 167.516 243.28 168.71 241.944C169.535 241.477 169.865 241.195 170.196 240.913C170.196 240.913 170.123 240.906 170.114 240.934C184.326 233.488 198.547 226.013 213.099 218.537Z" fill="#A6ACB3"/>
<path opacity="0.2" d="M212.778 -70.0074C234.545 -50.9894 256.126 -31.774 277.671 -12.5306C278.401 -11.8782 278.758 -10.9442 279.313 -9.87922C275.157 -0.764767 270.976 8.08749 266.492 17.0499C263.188 12.8067 259.992 8.53475 257.224 4.08403C250.603 -6.55847 244.21 -17.296 237.676 -27.9751C229.347 -41.5893 220.968 -55.1826 212.634 -68.7949C212.466 -69.069 212.597 -69.4659 212.778 -70.0074Z" fill="#A6ACB3"/>
</svg>
