<svg width="344" height="210" viewBox="0 0 344 210" fill="none" xmlns="http://www.w3.org/2000/svg">
<g opacity="0.6">
<path opacity="0.1" d="M-108.18 386.547C-104.367 375.533 -100.489 364.791 -96.6461 354.036C-92.0806 341.261 -87.5129 328.486 -83.0058 315.69C-79.0422 304.437 -75.1956 293.143 -71.2339 281.889C-66.729 269.093 -62.1248 256.331 -57.6179 243.535C-53.6545 232.282 -49.7973 220.991 -45.8358 209.737C-41.3312 196.941 -36.7368 184.176 -32.2302 171.38C-28.2668 160.127 -24.3991 148.84 -20.4376 137.586C-15.9334 124.789 -11.3487 112.021 -6.84242 99.2257C-2.87916 87.972 0.998244 76.688 4.965 65.4356C6.90641 59.9284 8.96478 54.4624 11.2651 49.1351C11.8818 49.7308 12.2036 50.1691 12.3667 50.8125C12.2151 51.3628 12.1065 51.7661 12.2463 52.0446C19.191 65.8774 26.1741 79.6908 33.115 93.5254C38.5596 104.377 43.8872 115.289 49.4043 126.104C51.7116 130.626 54.3749 134.968 56.8764 139.391C56.3087 142.096 56.0428 144.908 55.1237 147.488C49.8296 162.347 44.3831 177.152 38.9842 191.974C33.8672 206.022 28.7059 220.054 23.6371 234.12C18.9235 247.2 14.3328 260.324 9.6393 273.411C4.6307 287.377 -0.447363 301.318 -5.47175 315.279C-9.74367 327.148 -13.9916 339.027 -18.2315 350.908C-20.0792 356.086 -21.8805 361.28 -23.4421 366.615C-23.1814 366.764 -23.121 366.772 -23.332 366.595C-23.8272 366.838 -24.1115 367.258 -24.5835 367.842C-25.3539 369.177 -26.0591 370.304 -26.5007 371.525C-32.1135 387.05 -37.7105 402.581 -43.2645 418.127C-46.4372 427.007 -49.5243 435.918 -52.8084 444.981C-53.1674 446.037 -53.3682 446.928 -53.5689 447.82C-56.9586 444.196 -60.4045 440.623 -63.7281 436.94C-77.3532 421.84 -90.9414 406.707 -104.542 391.585C-105.476 390.546 -106.399 389.497 -107.58 388.429C-107.933 387.875 -108.032 387.344 -108.18 386.547Z" fill="white"/>
<path opacity="0.1" d="M12.5235 50.6143C12.2017 50.176 11.8799 49.7377 11.5155 49.0972C34.3596 44.5901 57.2384 40.2416 80.1394 36.0137C85.2869 35.0634 90.5011 34.4276 95.71 33.8951C96.8399 33.7797 98.4718 34.3902 99.209 35.2411C112.278 50.3266 125.274 65.4757 138.225 80.6636C150.794 95.4038 163.257 110.234 175.832 124.969C189.473 140.953 203.218 156.848 216.863 172.828C228.146 186.041 239.316 199.352 250.6 212.565C261.806 225.688 273.134 238.706 284.332 251.836C294.694 263.985 304.943 276.229 315.263 288.414C319.967 293.969 324.726 299.477 329.45 305.014C330.779 306.572 330.934 307.946 330.063 310.116C320.579 333.744 311.317 357.46 301.979 381.146C301.772 381.67 301.378 382.12 300.76 383.095C223.144 292.665 145.743 202.485 68.0654 111.98C67.3474 110.839 67.0504 109.89 66.4417 109.227C48.488 89.6719 30.5033 70.1454 12.5235 50.6143Z" fill="white"/>
<path opacity="0.1" d="M12.3695 50.8353C30.5081 70.1612 48.4928 89.6877 66.4465 109.243C67.0552 109.906 67.3522 110.855 67.8153 111.937C64.3518 121.199 60.8674 130.195 57.1311 139.302C54.3778 134.99 51.7144 130.649 49.4072 126.126C43.8901 115.312 38.5625 104.4 33.1179 93.5481C26.177 79.7135 19.1938 65.9001 12.2492 52.0674C12.1093 51.7889 12.218 51.3856 12.3695 50.8353Z" fill="#8C949D"/>
</g>
</svg>
