<svg width="44" height="44" viewBox="0 0 44 44" fill="none" xmlns="http://www.w3.org/2000/svg">
<rect width="44" height="44" rx="22" fill="#0060D3"/>
<path d="M30.25 13.75H22.75V12.25C22.75 12.0511 22.671 11.8603 22.5303 11.7197C22.3897 11.579 22.1989 11.5 22 11.5C21.8011 11.5 21.6103 11.579 21.4697 11.7197C21.329 11.8603 21.25 12.0511 21.25 12.25V13.75H13.75C13.3522 13.75 12.9706 13.908 12.6893 14.1893C12.408 14.4706 12.25 14.8522 12.25 15.25V26.5C12.25 26.8978 12.408 27.2794 12.6893 27.5607C12.9706 27.842 13.3522 28 13.75 28H17.44L15.4141 30.5313C15.2897 30.6867 15.2322 30.8851 15.2542 31.0829C15.2762 31.2807 15.3758 31.4616 15.5312 31.5859C15.6867 31.7103 15.8851 31.7678 16.0829 31.7458C16.2807 31.7238 16.4616 31.6242 16.5859 31.4688L19.36 28H24.64L27.4141 31.4688C27.4756 31.5457 27.5517 31.6098 27.638 31.6573C27.7244 31.7048 27.8192 31.7349 27.9171 31.7458C28.0151 31.7567 28.1142 31.7481 28.2088 31.7207C28.3035 31.6933 28.3918 31.6475 28.4688 31.5859C28.5457 31.5244 28.6098 31.4483 28.6573 31.362C28.7048 31.2756 28.7349 31.1808 28.7458 31.0829C28.7567 30.9849 28.7481 30.8858 28.7207 30.7912C28.6933 30.6965 28.6475 30.6082 28.5859 30.5313L26.56 28H30.25C30.6478 28 31.0294 27.842 31.3107 27.5607C31.592 27.2794 31.75 26.8978 31.75 26.5V15.25C31.75 14.8522 31.592 14.4706 31.3107 14.1893C31.0294 13.908 30.6478 13.75 30.25 13.75ZM30.25 26.5H13.75V15.25H30.25V26.5ZM19.75 21.25V23.5C19.75 23.6989 19.671 23.8897 19.5303 24.0303C19.3897 24.171 19.1989 24.25 19 24.25C18.8011 24.25 18.6103 24.171 18.4697 24.0303C18.329 23.8897 18.25 23.6989 18.25 23.5V21.25C18.25 21.0511 18.329 20.8603 18.4697 20.7197C18.6103 20.579 18.8011 20.5 19 20.5C19.1989 20.5 19.3897 20.579 19.5303 20.7197C19.671 20.8603 19.75 21.0511 19.75 21.25ZM22.75 19.75V23.5C22.75 23.6989 22.671 23.8897 22.5303 24.0303C22.3897 24.171 22.1989 24.25 22 24.25C21.8011 24.25 21.6103 24.171 21.4697 24.0303C21.329 23.8897 21.25 23.6989 21.25 23.5V19.75C21.25 19.5511 21.329 19.3603 21.4697 19.2197C21.6103 19.079 21.8011 19 22 19C22.1989 19 22.3897 19.079 22.5303 19.2197C22.671 19.3603 22.75 19.5511 22.75 19.75ZM25.75 18.25V23.5C25.75 23.6989 25.671 23.8897 25.5303 24.0303C25.3897 24.171 25.1989 24.25 25 24.25C24.8011 24.25 24.6103 24.171 24.4697 24.0303C24.329 23.8897 24.25 23.6989 24.25 23.5V18.25C24.25 18.0511 24.329 17.8603 24.4697 17.7197C24.6103 17.579 24.8011 17.5 25 17.5C25.1989 17.5 25.3897 17.579 25.5303 17.7197C25.671 17.8603 25.75 18.0511 25.75 18.25Z" fill="white"/>
</svg>
