<svg width="44" height="44" viewBox="0 0 44 44" fill="none" xmlns="http://www.w3.org/2000/svg">
<rect width="44" height="44" rx="22" fill="#0060D3"/>
<path d="M28.75 17.5V20.5C28.75 20.6989 28.671 20.8897 28.5303 21.0303C28.3897 21.171 28.1989 21.25 28 21.25C27.8011 21.25 27.6103 21.171 27.4697 21.0303C27.329 20.8897 27.25 20.6989 27.25 20.5V18.25H25C24.8011 18.25 24.6103 18.171 24.4697 18.0303C24.329 17.8897 24.25 17.6989 24.25 17.5C24.25 17.3011 24.329 17.1103 24.4697 16.9697C24.6103 16.829 24.8011 16.75 25 16.75H28C28.1989 16.75 28.3897 16.829 28.5303 16.9697C28.671 17.1103 28.75 17.3011 28.75 17.5ZM19 25.75H16.75V23.5C16.75 23.3011 16.671 23.1103 16.5303 22.9697C16.3897 22.829 16.1989 22.75 16 22.75C15.8011 22.75 15.6103 22.829 15.4697 22.9697C15.329 23.1103 15.25 23.3011 15.25 23.5V26.5C15.25 26.6989 15.329 26.8897 15.4697 27.0303C15.6103 27.171 15.8011 27.25 16 27.25H19C19.1989 27.25 19.3897 27.171 19.5303 27.0303C19.671 26.8897 19.75 26.6989 19.75 26.5C19.75 26.3011 19.671 26.1103 19.5303 25.9697C19.3897 25.829 19.1989 25.75 19 25.75ZM31.75 15.25V28.75C31.75 29.1478 31.592 29.5294 31.3107 29.8107C31.0294 30.092 30.6478 30.25 30.25 30.25H13.75C13.3522 30.25 12.9706 30.092 12.6893 29.8107C12.408 29.5294 12.25 29.1478 12.25 28.75V15.25C12.25 14.8522 12.408 14.4706 12.6893 14.1893C12.9706 13.908 13.3522 13.75 13.75 13.75H30.25C30.6478 13.75 31.0294 13.908 31.3107 14.1893C31.592 14.4706 31.75 14.8522 31.75 15.25ZM30.25 28.75V15.25H13.75V28.75H30.25Z" fill="white"/>
</svg>
