<svg width="44" height="44" viewBox="0 0 44 44" fill="none" xmlns="http://www.w3.org/2000/svg">
<rect width="44" height="44" rx="22" fill="#0060D3"/>
<path d="M31.75 29.5C31.75 29.6989 31.671 29.8897 31.5303 30.0303C31.3897 30.171 31.1989 30.25 31 30.25H13C12.8011 30.25 12.6103 30.171 12.4697 30.0303C12.329 29.8897 12.25 29.6989 12.25 29.5V14.5C12.25 14.3011 12.329 14.1103 12.4697 13.9697C12.6103 13.829 12.8011 13.75 13 13.75C13.1989 13.75 13.3897 13.829 13.5303 13.9697C13.671 14.1103 13.75 14.3011 13.75 14.5V28.75H31C31.1989 28.75 31.3897 28.829 31.5303 28.9697C31.671 29.1103 31.75 29.3011 31.75 29.5ZM22.375 25C22.5975 25 22.815 24.934 23 24.8104C23.185 24.6868 23.3292 24.5111 23.4144 24.3055C23.4995 24.1 23.5218 23.8738 23.4784 23.6555C23.435 23.4373 23.3278 23.2368 23.1705 23.0795C23.0132 22.9222 22.8127 22.815 22.5945 22.7716C22.3762 22.7282 22.15 22.7505 21.9445 22.8356C21.7389 22.9208 21.5632 23.065 21.4396 23.25C21.316 23.435 21.25 23.6525 21.25 23.875C21.25 24.1734 21.3685 24.4595 21.5795 24.6705C21.7905 24.8815 22.0766 25 22.375 25ZM20.125 19.75C20.3475 19.75 20.565 19.684 20.75 19.5604C20.935 19.4368 21.0792 19.2611 21.1644 19.0555C21.2495 18.85 21.2718 18.6238 21.2284 18.4055C21.185 18.1873 21.0778 17.9868 20.9205 17.8295C20.7632 17.6722 20.5627 17.565 20.3445 17.5216C20.1262 17.4782 19.9 17.5005 19.6945 17.5856C19.4889 17.6708 19.3132 17.815 19.1896 18C19.066 18.185 19 18.4025 19 18.625C19 18.9234 19.1185 19.2095 19.3295 19.4205C19.5405 19.6315 19.8266 19.75 20.125 19.75ZM17.125 26.5C17.3475 26.5 17.565 26.434 17.75 26.3104C17.935 26.1868 18.0792 26.0111 18.1644 25.8055C18.2495 25.6 18.2718 25.3738 18.2284 25.1555C18.185 24.9373 18.0778 24.7368 17.9205 24.5795C17.7632 24.4222 17.5627 24.315 17.3445 24.2716C17.1262 24.2282 16.9 24.2505 16.6945 24.3356C16.4889 24.4208 16.3132 24.565 16.1896 24.75C16.066 24.935 16 25.1525 16 25.375C16 25.6734 16.1185 25.9595 16.3295 26.1705C16.5405 26.3815 16.8266 26.5 17.125 26.5ZM26.125 22C26.3475 22 26.565 21.934 26.75 21.8104C26.935 21.6868 27.0792 21.5111 27.1644 21.3055C27.2495 21.1 27.2718 20.8738 27.2284 20.6555C27.185 20.4373 27.0778 20.2368 26.9205 20.0795C26.7632 19.9222 26.5627 19.815 26.3445 19.7716C26.1262 19.7282 25.9 19.7505 25.6945 19.8356C25.4889 19.9208 25.3132 20.065 25.1896 20.25C25.066 20.435 25 20.6525 25 20.875C25 21.1734 25.1185 21.4595 25.3295 21.6705C25.5405 21.8815 25.8266 22 26.125 22ZM28.375 18.25C28.5975 18.25 28.815 18.184 29 18.0604C29.185 17.9368 29.3292 17.7611 29.4144 17.5555C29.4995 17.35 29.5218 17.1238 29.4784 16.9055C29.435 16.6873 29.3278 16.4868 29.1705 16.3295C29.0132 16.1722 28.8127 16.065 28.5945 16.0216C28.3762 15.9782 28.15 16.0005 27.9445 16.0856C27.7389 16.1708 27.5632 16.315 27.4396 16.5C27.316 16.685 27.25 16.9025 27.25 17.125C27.25 17.4234 27.3685 17.7095 27.5795 17.9205C27.7905 18.1315 28.0766 18.25 28.375 18.25ZM26.5 25.375C26.5 25.5975 26.566 25.815 26.6896 26C26.8132 26.185 26.9889 26.3292 27.1945 26.4144C27.4 26.4995 27.6262 26.5218 27.8445 26.4784C28.0627 26.435 28.2632 26.3278 28.4205 26.1705C28.5778 26.0132 28.685 25.8127 28.7284 25.5945C28.7718 25.3762 28.7495 25.15 28.6644 24.9445C28.5792 24.7389 28.435 24.5632 28.25 24.4396C28.065 24.316 27.8475 24.25 27.625 24.25C27.3266 24.25 27.0405 24.3685 26.8295 24.5795C26.6185 24.7905 26.5 25.0766 26.5 25.375Z" fill="white"/>
</svg>
