<svg width="44" height="44" viewBox="0 0 44 44" fill="none" xmlns="http://www.w3.org/2000/svg">
<rect width="44" height="44" rx="22" fill="#0060D3"/>
<path d="M32.2375 24.2382C32.1749 24.0634 32.1013 23.8928 32.0172 23.7272L28.1181 14.8566C28.0812 14.7712 28.0284 14.6935 27.9625 14.6279C27.6839 14.3492 27.3532 14.1282 26.9891 13.9774C26.6251 13.8266 26.235 13.7489 25.8409 13.7489C25.4469 13.7489 25.0568 13.8266 24.6927 13.9774C24.3287 14.1282 23.998 14.3492 23.7194 14.6279C23.5792 14.7682 23.5003 14.9583 23.5 15.1566V17.5004H20.5V15.1566C20.5001 15.0581 20.4807 14.9605 20.4431 14.8695C20.4055 14.7784 20.3503 14.6957 20.2806 14.626C20.002 14.3473 19.6713 14.1263 19.3073 13.9755C18.9433 13.8247 18.5531 13.7471 18.1591 13.7471C17.765 13.7471 17.3749 13.8247 17.0109 13.9755C16.6468 14.1263 16.3161 14.3473 16.0375 14.626C15.9716 14.6917 15.9188 14.7693 15.8819 14.8547L11.9828 23.7254C11.8987 23.8909 11.8251 24.0615 11.7625 24.2363C11.5417 24.8541 11.4587 25.5126 11.5192 26.1658C11.5797 26.8191 11.7823 27.4511 12.1128 28.0178C12.4433 28.5845 12.8937 29.0721 13.4325 29.4464C13.9712 29.8207 14.5853 30.0727 15.2317 30.1847C15.8781 30.2967 16.5411 30.266 17.1744 30.0948C17.8077 29.9236 18.3959 29.616 18.8978 29.1936C19.3997 28.7711 19.8031 28.244 20.0799 27.6493C20.3567 27.0545 20.5001 26.4064 20.5 25.7504V19.0004H23.5V25.7504C23.4997 26.4065 23.6428 27.0547 23.9194 27.6497C24.196 28.2446 24.5993 28.7719 25.1011 29.1945C25.603 29.6172 26.1911 29.925 26.8245 30.0964C27.4578 30.2678 28.1209 30.2986 28.7674 30.1867C29.4139 30.0748 30.0281 29.8229 30.567 29.4487C31.1059 29.0744 31.5564 28.5868 31.887 28.0201C32.2176 27.4534 32.4202 26.8212 32.4808 26.1679C32.5413 25.5146 32.4583 24.856 32.2375 24.2382ZM17.1916 15.6019C17.4416 15.3914 17.7536 15.2683 18.08 15.2514C18.4065 15.2344 18.7295 15.3246 19 15.5082V22.3997C18.4144 21.8739 17.701 21.5113 16.9311 21.348C16.1612 21.1848 15.362 21.2268 14.6134 21.4697L17.1916 15.6019ZM16 28.7504C15.4067 28.7504 14.8266 28.5744 14.3333 28.2448C13.8399 27.9151 13.4554 27.4466 13.2284 26.8984C13.0013 26.3502 12.9419 25.747 13.0576 25.1651C13.1734 24.5832 13.4591 24.0486 13.8787 23.629C14.2982 23.2095 14.8328 22.9238 15.4147 22.808C15.9967 22.6923 16.5999 22.7517 17.1481 22.9787C17.6962 23.2058 18.1648 23.5903 18.4944 24.0837C18.8241 24.577 19 25.157 19 25.7504C19 26.546 18.6839 27.3091 18.1213 27.8717C17.5587 28.4343 16.7957 28.7504 16 28.7504ZM25 15.5072C25.2705 15.3237 25.5935 15.2335 25.92 15.2504C26.2464 15.2674 26.5584 15.3905 26.8084 15.601L29.3866 21.4679C28.6379 21.225 27.8386 21.1832 27.0688 21.3466C26.2989 21.51 25.5855 21.8728 25 22.3988V15.5072ZM28 28.7504C27.4067 28.7504 26.8266 28.5744 26.3333 28.2448C25.8399 27.9151 25.4554 27.4466 25.2284 26.8984C25.0013 26.3502 24.9419 25.747 25.0576 25.1651C25.1734 24.5832 25.4591 24.0486 25.8787 23.629C26.2982 23.2095 26.8328 22.9238 27.4147 22.808C27.9967 22.6923 28.5999 22.7517 29.1481 22.9787C29.6962 23.2058 30.1648 23.5903 30.4944 24.0837C30.8241 24.577 31 25.157 31 25.7504C31 26.546 30.6839 27.3091 30.1213 27.8717C29.5587 28.4343 28.7956 28.7504 28 28.7504Z" fill="white"/>
</svg>
