<svg width="44" height="44" viewBox="0 0 44 44" fill="none" xmlns="http://www.w3.org/2000/svg">
<rect width="44" height="44" rx="22" fill="#0060D3"/>
<path d="M25.75 20.5H30.25C30.6478 20.5 31.0294 20.342 31.3107 20.0607C31.592 19.7794 31.75 19.3978 31.75 19V14.5C31.75 14.1022 31.592 13.7206 31.3107 13.4393C31.0294 13.158 30.6478 13 30.25 13H25.75C25.3522 13 24.9706 13.158 24.6893 13.4393C24.408 13.7206 24.25 14.1022 24.25 14.5V16H23.5C22.7044 16 21.9413 16.3161 21.3787 16.8787C20.8161 17.4413 20.5 18.2044 20.5 19V21.25H17.5V20.5C17.5 20.1022 17.342 19.7206 17.0607 19.4393C16.7794 19.158 16.3978 19 16 19H13C12.6022 19 12.2206 19.158 11.9393 19.4393C11.658 19.7206 11.5 20.1022 11.5 20.5V23.5C11.5 23.8978 11.658 24.2794 11.9393 24.5607C12.2206 24.842 12.6022 25 13 25H16C16.3978 25 16.7794 24.842 17.0607 24.5607C17.342 24.2794 17.5 23.8978 17.5 23.5V22.75H20.5V25C20.5 25.7956 20.8161 26.5587 21.3787 27.1213C21.9413 27.6839 22.7044 28 23.5 28H24.25V29.5C24.25 29.8978 24.408 30.2794 24.6893 30.5607C24.9706 30.842 25.3522 31 25.75 31H30.25C30.6478 31 31.0294 30.842 31.3107 30.5607C31.592 30.2794 31.75 29.8978 31.75 29.5V25C31.75 24.6022 31.592 24.2206 31.3107 23.9393C31.0294 23.658 30.6478 23.5 30.25 23.5H25.75C25.3522 23.5 24.9706 23.658 24.6893 23.9393C24.408 24.2206 24.25 24.6022 24.25 25V26.5H23.5C23.1022 26.5 22.7206 26.342 22.4393 26.0607C22.158 25.7794 22 25.3978 22 25V19C22 18.6022 22.158 18.2206 22.4393 17.9393C22.7206 17.658 23.1022 17.5 23.5 17.5H24.25V19C24.25 19.3978 24.408 19.7794 24.6893 20.0607C24.9706 20.342 25.3522 20.5 25.75 20.5ZM16 23.5H13V20.5H16V23.5ZM25.75 25H30.25V29.5H25.75V25ZM25.75 14.5H30.25V19H25.75V14.5Z" fill="white"/>
</svg>
