<svg width="44" height="44" viewBox="0 0 44 44" fill="none" xmlns="http://www.w3.org/2000/svg">
<rect width="44" height="44" rx="22" fill="#0060D3"/>
<path d="M30.25 14.5H13.75C13.5511 14.5 13.3603 14.579 13.2197 14.7197C13.079 14.8603 13 15.0511 13 15.25V29.5C13 29.8978 13.158 30.2794 13.4393 30.5607C13.7206 30.842 14.1022 31 14.5 31H18.25C18.6478 31 19.0294 30.842 19.3107 30.5607C19.592 30.2794 19.75 29.8978 19.75 29.5V25H24.25V26.5C24.25 26.8978 24.408 27.2794 24.6893 27.5607C24.9706 27.842 25.3522 28 25.75 28H29.5C29.8978 28 30.2794 27.842 30.5607 27.5607C30.842 27.2794 31 26.8978 31 26.5V15.25C31 15.0511 30.921 14.8603 30.7803 14.7197C30.6397 14.579 30.4489 14.5 30.25 14.5ZM18.25 29.5H14.5V22H18.25V29.5ZM18.25 20.5H14.5V16H18.25V20.5ZM24.25 23.5H19.75V16H24.25V23.5ZM29.5 26.5H25.75V22H29.5V26.5ZM29.5 20.5H25.75V16H29.5V20.5Z" fill="white"/>
</svg>
