<svg width="70" height="70" viewBox="0 0 70 70" fill="none" xmlns="http://www.w3.org/2000/svg">
<rect width="70" height="70" rx="35" fill="#E3EDFB"/>
<path d="M48.4999 23.75V46.25C48.4999 46.8467 48.2628 47.419 47.8409 47.841C47.4189 48.2629 46.8466 48.5 46.2499 48.5H36.1249C35.8265 48.5 35.5404 48.3815 35.3294 48.1705C35.1184 47.9595 34.9999 47.6734 34.9999 47.375C34.9999 47.0766 35.1184 46.7905 35.3294 46.5795C35.5404 46.3685 35.8265 46.25 36.1249 46.25H46.2499V23.75H23.7499V37.25C23.7499 37.5484 23.6314 37.8345 23.4204 38.0455C23.2094 38.2565 22.9233 38.375 22.6249 38.375C22.3265 38.375 22.0404 38.2565 21.8294 38.0455C21.6184 37.8345 21.4999 37.5484 21.4999 37.25V23.75C21.4999 23.1533 21.7369 22.581 22.1589 22.159C22.5809 21.7371 23.1532 21.5 23.7499 21.5H46.2499C46.8466 21.5 47.4189 21.7371 47.8409 22.159C48.2628 22.581 48.4999 23.1533 48.4999 23.75ZM34.6708 38.7041C34.5663 38.5995 34.4423 38.5165 34.3057 38.4599C34.1691 38.4033 34.0227 38.3741 33.8749 38.3741C33.7271 38.3741 33.5807 38.4033 33.4441 38.4599C33.3075 38.5165 33.1834 38.5995 33.079 38.7041L25.9999 45.7845L23.4208 43.2041C23.3163 43.0995 23.1922 43.0166 23.0557 42.9601C22.9191 42.9035 22.7727 42.8744 22.6249 42.8744C22.4771 42.8744 22.3307 42.9035 22.1941 42.9601C22.0576 43.0166 21.9335 43.0995 21.829 43.2041C21.7244 43.3086 21.6415 43.4327 21.585 43.5692C21.5284 43.7058 21.4993 43.8522 21.4993 44C21.4993 44.1478 21.5284 44.2942 21.585 44.4308C21.6415 44.5673 21.7244 44.6914 21.829 44.7959L25.204 48.1709C25.3084 48.2755 25.4325 48.3585 25.5691 48.4151C25.7057 48.4717 25.8521 48.5009 25.9999 48.5009C26.1477 48.5009 26.2941 48.4717 26.4307 48.4151C26.5673 48.3585 26.6913 48.2755 26.7958 48.1709L34.6708 40.2959C34.7754 40.1915 34.8584 40.0674 34.915 39.9308C34.9716 39.7942 35.0008 39.6478 35.0008 39.5C35.0008 39.3522 34.9716 39.2058 34.915 39.0692C34.8584 38.9326 34.7754 38.8085 34.6708 38.7041Z" fill="#0060D3"/>
</svg>
