<svg width="70" height="70" viewBox="0 0 70 70" fill="none" xmlns="http://www.w3.org/2000/svg">
<rect width="70" height="70" rx="35" fill="#E3EDFB"/>
<path d="M49.625 46.25C49.625 46.5484 49.5065 46.8345 49.2955 47.0455C49.0845 47.2565 48.7984 47.375 48.5 47.375H21.5C21.2016 47.375 20.9155 47.2565 20.7045 47.0455C20.4935 46.8345 20.375 46.5484 20.375 46.25V23.75C20.375 23.4516 20.4935 23.1655 20.7045 22.9545C20.9155 22.7435 21.2016 22.625 21.5 22.625C21.7984 22.625 22.0845 22.7435 22.2955 22.9545C22.5065 23.1655 22.625 23.4516 22.625 23.75V39.0345L29.7041 31.9541C29.8085 31.8495 29.9326 31.7665 30.0692 31.7099C30.2058 31.6533 30.3522 31.6241 30.5 31.6241C30.6478 31.6241 30.7942 31.6533 30.9308 31.7099C31.0674 31.7665 31.1915 31.8495 31.2959 31.9541L35 35.6595L42.4095 28.25H39.5C39.2016 28.25 38.9155 28.1315 38.7045 27.9205C38.4935 27.7095 38.375 27.4234 38.375 27.125C38.375 26.8266 38.4935 26.5405 38.7045 26.3295C38.9155 26.1185 39.2016 26 39.5 26H45.125C45.4234 26 45.7095 26.1185 45.9205 26.3295C46.1315 26.5405 46.25 26.8266 46.25 27.125V32.75C46.25 33.0484 46.1315 33.3345 45.9205 33.5455C45.7095 33.7565 45.4234 33.875 45.125 33.875C44.8266 33.875 44.5405 33.7565 44.3295 33.5455C44.1185 33.3345 44 33.0484 44 32.75V29.8405L35.7959 38.0459C35.6915 38.1505 35.5674 38.2335 35.4308 38.2901C35.2942 38.3467 35.1478 38.3759 35 38.3759C34.8522 38.3759 34.7058 38.3467 34.5692 38.2901C34.4326 38.2335 34.3085 38.1505 34.2041 38.0459L30.5 34.3405L22.625 42.2155V45.125H48.5C48.7984 45.125 49.0845 45.2435 49.2955 45.4545C49.5065 45.6655 49.625 45.9516 49.625 46.25Z" fill="#0060D3"/>
</svg>
