<svg width="192" height="32" viewBox="0 0 192 32" fill="none" xmlns="http://www.w3.org/2000/svg">
<path d="M16 0L19.5922 11.0557H31.2169L21.8123 17.8885L25.4046 28.9443L16 22.1115L6.59544 28.9443L10.1877 17.8885L0.783095 11.0557H12.4078L16 0Z" fill="#F2C94C"/>
<path d="M56 0L59.5922 11.0557H71.2169L61.8123 17.8885L65.4046 28.9443L56 22.1115L46.5954 28.9443L50.1877 17.8885L40.7831 11.0557H52.4078L56 0Z" fill="#F2C94C"/>
<path d="M96 0L99.5922 11.0557H111.217L101.812 17.8885L105.405 28.9443L96 22.1115L86.5954 28.9443L90.1877 17.8885L80.7831 11.0557H92.4078L96 0Z" fill="#F2C94C"/>
<path d="M136 0L139.592 11.0557H151.217L141.812 17.8885L145.405 28.9443L136 22.1115L126.595 28.9443L130.188 17.8885L120.783 11.0557H132.408L136 0Z" fill="#F2C94C"/>
<path d="M176 0L179.592 11.0557H191.217L181.812 17.8885L185.405 28.9443L176 22.1115L166.595 28.9443L170.188 17.8885L160.783 11.0557H172.408L176 0Z" fill="#F2C94C"/>
</svg>
